<?xml version="1.0" encoding="utf-8"?>
<!-- Generator: Adobe Illustrator 16.0.0, SVG Export Plug-In . SVG Version: 6.00 Build 0)  -->
<!DOCTYPE svg PUBLIC "-//W3C//DTD SVG 1.1//EN" "http://www.w3.org/Graphics/SVG/1.1/DTD/svg11.dtd">
<svg version="1.1" id="Layer_2" xmlns="http://www.w3.org/2000/svg" xmlns:xlink="http://www.w3.org/1999/xlink" x="0px" y="0px"
	 width="2800px" height="1960px" viewBox="0 0 2800 1960" enable-background="new 0 0 2800 1960" xml:space="preserve">
<g id="Airport">
</g>
<g>
	<rect fill="#04192D" width="2800" height="1959.1"/>
	<g>
		<g>
			<path fill="#FDD4A6" d="M1029.7,586.4c-12.1,0-22-9.9-22-22c0-12.1,9.9-22,22-22s22,9.9,22,22
				C1051.7,576.5,1041.8,586.4,1029.7,586.4z M1029.7,548.3c-8.9,0-16.1,7.2-16.1,16.1s7.2,16.1,16.1,16.1s16.1-7.2,16.1-16.1
				S1038.6,548.3,1029.7,548.3z"/>
		</g>
		<g>
			<path fill="#FDD4A6" d="M980.5,1664.8c-12.1,0-22-9.9-22-22c0-12.1,9.9-22,22-22c12.1,0,22,9.9,22,22
				C1002.5,1654.9,992.6,1664.8,980.5,1664.8z M980.5,1626.7c-8.9,0-16.1,7.2-16.1,16.1c0,8.9,7.2,16.1,16.1,16.1
				s16.1-7.2,16.1-16.1C996.6,1633.9,989.4,1626.7,980.5,1626.7z"/>
		</g>
		<g>
			<path fill="#FDD4A6" d="M1755.7,705.7c-12.1,0-22-9.9-22-22c0-12.1,9.9-22,22-22c12.1,0,22,9.9,22,22
				C1777.7,695.9,1767.9,705.7,1755.7,705.7z M1755.7,667.6c-8.9,0-16.1,7.2-16.1,16.1s7.2,16.1,16.1,16.1s16.1-7.2,16.1-16.1
				S1764.6,667.6,1755.7,667.6z"/>
		</g>
		<g>
			<g>
				<path fill="#FDD4A6" d="M963.6,811.2c-1.6,0-2.9-1.3-2.9-2.9v-38.1c0-1.6,1.3-2.9,2.9-2.9c1.6,0,2.9,1.3,2.9,2.9v38.1
					C966.5,809.9,965.2,811.2,963.6,811.2z"/>
			</g>
			<g>
				<path fill="#FDD4A6" d="M982.6,792.1h-38.1c-1.6,0-2.9-1.3-2.9-2.9c0-1.6,1.3-2.9,2.9-2.9h38.1c1.6,0,2.9,1.3,2.9,2.9
					C985.6,790.8,984.2,792.1,982.6,792.1z"/>
			</g>
		</g>
		<g>
			<g>
				<path fill="#FDD4A6" d="M980.5,1553.8c-1.6,0-2.9-1.3-2.9-2.9v-38.1c0-1.6,1.3-2.9,2.9-2.9c1.6,0,2.9,1.3,2.9,2.9v38.1
					C983.4,1552.5,982.1,1553.8,980.5,1553.8z"/>
			</g>
			<g>
				<path fill="#FDD4A6" d="M999.6,1534.7h-38.1c-1.6,0-2.9-1.3-2.9-2.9c0-1.6,1.3-2.9,2.9-2.9h38.1c1.6,0,2.9,1.3,2.9,2.9
					C1002.5,1533.4,1001.2,1534.7,999.6,1534.7z"/>
			</g>
		</g>
		<g>
			<g>
				<path fill="#FDD4A6" d="M1892.4,1196.9c-1.6,0-2.9-1.3-2.9-2.9v-38.1c0-1.6,1.3-2.9,2.9-2.9s2.9,1.3,2.9,2.9v38.1
					C1895.3,1195.6,1894,1196.9,1892.4,1196.9z"/>
			</g>
			<g>
				<path fill="#FDD4A6" d="M1911.4,1177.8h-38.1c-1.6,0-2.9-1.3-2.9-2.9c0-1.6,1.3-2.9,2.9-2.9h38.1c1.6,0,2.9,1.3,2.9,2.9
					C1914.4,1176.5,1913,1177.8,1911.4,1177.8z"/>
			</g>
		</g>
		<g>
			<path fill="#FDD4A6" d="M723.3,937.8h-63.1c-1.6,0-2.9-1.3-2.9-2.9c0-1.6,1.3-2.9,2.9-2.9h63.1c1.6,0,2.9,1.3,2.9,2.9
				C726.2,936.5,724.9,937.8,723.3,937.8z"/>
		</g>
		<g>
			<path fill="#FDD4A6" d="M638.3,1594.4h-63.1c-1.6,0-2.9-1.3-2.9-2.9c0-1.6,1.3-2.9,2.9-2.9h63.1c1.6,0,2.9,1.3,2.9,2.9
				C641.2,1593.1,639.9,1594.4,638.3,1594.4z"/>
		</g>
		<g>
			<path fill="#FDD4A6" d="M1542,1542.7h-63.1c-1.6,0-2.9-1.3-2.9-2.9s1.3-2.9,2.9-2.9h63.1c1.6,0,2.9,1.3,2.9,2.9
				S1543.6,1542.7,1542,1542.7z"/>
		</g>
		<g>
			<g>
				<path fill="#2D9642" d="M1474.8,969.3l-164-401.4l-200.9,82.1l164,401.3L1474.8,969.3z M1318,1017.7c-0.8,0.3-1.7-0.1-2-0.8
					c-7.9-19.3-29.9-28.5-49.2-20.7c-0.8,0.3-1.7-0.1-2-0.8l-122.2-298.9c-0.3-0.8,0.1-1.7,0.8-2c19.3-7.9,28.5-29.9,20.7-49.2
					c-0.3-0.8,0.1-1.7,0.8-2l101.8-41.6c0.8-0.3,1.7,0.1,2,0.8c7.9,19.3,29.9,28.5,49.2,20.7c0.8-0.3,1.7,0.1,2,0.8l122.2,298.9
					c0.3,0.8-0.1,1.7-0.8,2c-19.3,7.9-28.5,29.9-20.7,49.2c0.3,0.8-0.1,1.7-0.8,2L1318,1017.7z"/>
				<path fill="#70BF6C" d="M1438.7,922.6l-121-296.1c-20,7.3-42.4-2.1-51.2-21.5l-99,40.5c7.3,20-2.1,42.4-21.5,51.2l121,296.1
					c20-7.3,42.4,2.1,51.2,21.5l99-40.5C1409.9,953.8,1419.3,931.4,1438.7,922.6z M1212.8,673.2c-4.6-11.2,0.8-24.1,12-28.7
					c11.2-4.6,24.1,0.8,28.7,12c4.6,11.2-0.8,24.1-12,28.7C1230.3,689.8,1217.4,684.4,1212.8,673.2z M1227.3,839.1
					c-0.4-0.8-0.8-1.6-1.1-2.4c-10.6-25.9,8.4-58.4,43.1-74.1c35.8-16.2,75.3-8.2,88,17.7c0.4,0.8,0.8,1.6,1.1,2.4v0
					c10.6,25.9-8.4,58.4-43.1,74C1279.5,872.9,1240,865,1227.3,839.1z M1359.8,974.8c-11.2,4.6-24.1-0.8-28.7-12
					c-4.6-11.2,0.8-24.1,12-28.7c11.2-4.6,24.1,0.8,28.7,12C1376.5,957.4,1371.1,970.3,1359.8,974.8z"/>
				<path fill="#2D9642" d="M1250.6,657.7c-3.9-9.6-15-14.3-24.6-10.3c-9.6,3.9-14.3,15-10.3,24.6c3.9,9.6,15,14.3,24.6,10.3
					C1249.9,678.4,1254.6,667.4,1250.6,657.7z"/>
				<path fill="#2D9642" d="M1369,947.4c-3.9-9.6-15-14.3-24.6-10.3c-9.6,3.9-14.3,15-10.3,24.6c3.9,9.6,15,14.3,24.6,10.3
					C1368.3,968,1372.9,957,1369,947.4z"/>
				<path fill="#04192D" d="M1292.5,829.4c1.3-1.4,2.2-2.9,2.8-4.5c0.6-1.7,1-3.4,1.1-5.2c0.1-1.8,0.1-3.7,0-5.5
					c-0.1-1.8-0.3-3.6-0.4-5.5c-0.2-2-0.2-3.7-0.1-5.3c0.1-1.7,0.6-3.3,1.2-4.6c0.7-1.5,2-2.6,3.8-3.5c2.6-1.2,5.2-1.2,7.7,0.2
					c2.4,1.2,4.5,3.8,6.3,7.6c1.1,2.4,1.8,4.6,2.2,6.5c0.3,1.9,0.5,3.7,0.5,5.2c0,1.7-0.1,2.8-0.2,3.7c-0.1,0.8,0,1.1,0,1.2
					c0,0,0.1,0,0.1,0c0.1,0,0.5,0,1.2-0.3c0.6-0.2,1.5-0.6,2.4-1c1.5-0.7,2.2-1.2,2.6-1.4c0.4-0.3,0.6-0.5,0.7-0.8
					c0.1-0.2,0.2-0.7,0.2-1.6c0-0.8,0-1.7-0.1-2.7c-0.1-1-0.2-2.2-0.5-3.4c-0.2-1.2-0.6-2.5-1-3.8c-0.2-0.8,0.2-1.6,1-1.9l9.5-3.3
					c0.1,0,0.1,0,0.2-0.1c0-0.2,0-0.5-0.2-1c-0.2-0.6-0.5-1.3-0.9-2.2c-0.3-0.7-0.6-1.2-0.9-1.6c-0.2-0.4-0.4-0.6-0.5-0.7l-9.9,3.5
					c-0.7,0.2-1.5,0-1.9-0.7c-1.5-2.6-3.2-4.9-5.1-6.7c-1.9-1.8-3.9-3.2-5.9-4.1c-2.1-0.9-4.2-1.3-6.5-1.3c-2.2,0.1-4.6,0.6-6.9,1.7
					c-2.2,1-3.9,2.3-5.2,3.6c-1.2,1.4-2.1,2.9-2.7,4.5c-0.6,1.6-0.9,3.4-1,5.2c-0.1,1.9-0.1,3.8,0.1,5.6c0.1,1.9,0.3,3.8,0.4,5.6
					c0.2,1.9,0.2,3.7,0.1,5.3c-0.1,1.7-0.5,3.3-1.2,4.7c-0.8,1.5-2,2.7-3.7,3.5c-1.1,0.5-2.2,0.8-3.3,0.8c-1.1,0-2.3-0.2-3.4-0.8
					c-1-0.5-2-1.4-3-2.5c-0.9-1.1-1.8-2.5-2.5-4.1c-0.8-1.8-1.4-3.6-1.7-5.3c-0.3-1.7-0.5-3.2-0.5-4.5c-0.1-1.3-0.1-2.4,0-3.5
					c0-0.4,0-0.7,0-0.9c-0.2,0-0.4,0.1-0.8,0.3c-0.6,0.2-1.4,0.6-2.2,1c-0.7,0.3-1.2,0.6-1.7,0.9c-0.4,0.2-0.8,0.5-1.1,0.7
					c-0.3,0.2-0.4,0.4-0.5,0.4c-0.1,0.2-0.2,0.3-0.3,0.5c0,0.1-0.1,0.3-0.1,1.3c0,0.7,0,1.6,0.1,2.4c0.1,0.9,0.2,1.8,0.4,2.8
					c0.2,1,0.5,1.9,0.7,2.7c0.2,0.8-0.2,1.6-1,1.9l-8.8,3c-0.1,0-0.2,0.1-0.2,0.1c0,0.2,0.1,0.5,0.2,1.1c0.2,0.6,0.5,1.3,0.9,2.1
					c0.4,0.8,0.6,1.3,0.9,1.7c0.3,0.4,0.4,0.6,0.5,0.6c0,0,0,0,0,0l9.3-3.3c0.7-0.2,1.5,0,1.8,0.6c1.4,2.3,3,4.3,4.7,5.8
					c1.7,1.5,3.4,2.6,5.2,3.3c1.8,0.7,3.7,1,5.7,0.9c2-0.1,4-0.6,6.1-1.6C1289.4,832,1291.2,830.8,1292.5,829.4z"/>
				<g>
					<path fill="#04192D" d="M1106.4,649.8l165.2,404.2c0.3,0.8,1.2,1.2,2,0.8l203.8-83.3c0.8-0.3,1.2-1.2,0.8-2l-165.2-404.2
						c-0.3-0.8-1.2-1.2-2-0.8l-203.8,83.3C1106.5,648.1,1106.1,649,1106.4,649.8z M1310.8,568l164,401.4l-200.9,82.1l-164-401.3
						L1310.8,568z"/>
					<path fill="#04192D" d="M1420.6,974.1c-7.9-19.3,1.4-41.3,20.7-49.2c0.8-0.3,1.2-1.2,0.8-2L1320,624c-0.3-0.8-1.2-1.2-2-0.8
						c-19.3,7.9-41.3-1.4-49.2-20.7c-0.3-0.8-1.2-1.2-2-0.8l-101.8,41.6c-0.8,0.3-1.2,1.2-0.8,2c7.9,19.3-1.4,41.3-20.7,49.2
						c-0.8,0.3-1.2,1.2-0.8,2l122.2,298.9c0.3,0.8,1.2,1.2,2,0.8c19.3-7.9,41.3,1.4,49.2,20.7c0.3,0.8,1.2,1.2,2,0.8l101.8-41.6
						C1420.6,975.8,1421,974.9,1420.6,974.1z M1318.2,1014.3c-8.8-19.4-31.2-28.8-51.2-21.5l-121-296.1
						c19.4-8.8,28.8-31.2,21.5-51.2l99-40.5c8.8,19.4,31.2,28.8,51.2,21.5l121,296.1c-19.4,8.8-28.8,31.2-21.5,51.2L1318.2,1014.3z"
						/>
					<path fill="#04192D" d="M1253.5,656.6c-4.6-11.2-17.4-16.6-28.7-12c-11.2,4.6-16.6,17.4-12,28.7c4.6,11.2,17.4,16.6,28.7,12
						C1252.7,680.6,1258.1,667.8,1253.5,656.6z M1215.7,672c-3.9-9.6,0.7-20.7,10.3-24.6c9.6-3.9,20.7,0.7,24.6,10.3
						c3.9,9.6-0.7,20.7-10.3,24.6C1230.7,686.3,1219.6,681.6,1215.7,672z"/>
					<path fill="#04192D" d="M1343.2,934.2c-11.2,4.6-16.6,17.4-12,28.7c4.6,11.2,17.4,16.6,28.7,12c11.2-4.6,16.6-17.4,12-28.7
						C1367.3,935,1354.4,929.6,1343.2,934.2z M1358.7,972c-9.6,3.9-20.7-0.7-24.6-10.3c-3.9-9.6,0.7-20.7,10.3-24.6
						c9.6-3.9,20.7,0.7,24.6,10.3C1372.9,957,1368.3,968,1358.7,972z"/>
					<path fill="#2D9642" d="M1269.3,762.6c-34.7,15.7-53.6,48.2-43.1,74.1c0.3,0.8,0.7,1.6,1.1,2.4c12.7,25.9,52.2,33.9,88.1,17.7
						c34.7-15.7,53.6-48.2,43.1-74v0c-0.3-0.8-0.7-1.6-1.1-2.4C1344.7,754.4,1305.2,746.4,1269.3,762.6z M1321.3,797.6l9.9-3.5
						c0.1,0.1,0.3,0.3,0.5,0.7c0.3,0.4,0.6,0.9,0.9,1.6c0.4,0.9,0.7,1.6,0.9,2.2c0.2,0.5,0.2,0.8,0.2,1c0,0-0.1,0-0.2,0.1l-9.5,3.3
						c-0.8,0.3-1.2,1.1-1,1.9c0.4,1.3,0.7,2.6,1,3.8c0.2,1.2,0.4,2.3,0.5,3.4c0.1,1,0.1,1.9,0.1,2.7c0,0.8-0.2,1.3-0.2,1.6
						c-0.1,0.2-0.3,0.5-0.7,0.8c-0.4,0.3-1.1,0.7-2.6,1.4c-1,0.5-1.8,0.8-2.4,1c-0.7,0.3-1.1,0.3-1.2,0.3c0,0-0.1,0-0.1,0
						c0-0.1-0.1-0.4,0-1.2c0.1-0.9,0.1-2.1,0.2-3.7c0-1.5-0.2-3.2-0.5-5.2c-0.3-2-1.1-4.2-2.2-6.5c-1.8-3.8-3.9-6.3-6.3-7.6
						c-2.5-1.3-5.1-1.4-7.7-0.2c-1.7,0.8-3,2-3.8,3.5c-0.7,1.3-1.1,2.9-1.2,4.6c-0.1,1.6-0.1,3.3,0.1,5.3c0.2,1.9,0.3,3.7,0.4,5.5
						c0.1,1.8,0.1,3.7,0,5.5c-0.1,1.8-0.5,3.5-1.1,5.2c-0.6,1.6-1.5,3.1-2.8,4.5c-1.3,1.4-3,2.6-5.3,3.7c-2.1,1-4.1,1.5-6.1,1.6
						c-2,0.1-3.9-0.2-5.7-0.9c-1.8-0.7-3.6-1.8-5.2-3.3c-1.7-1.5-3.3-3.5-4.7-5.8c-0.4-0.6-1.1-0.9-1.8-0.6l-9.3,3.3c0,0,0,0,0,0
						c0,0-0.2-0.2-0.5-0.6c-0.2-0.4-0.5-0.9-0.9-1.7c-0.4-0.8-0.7-1.6-0.9-2.1c-0.2-0.6-0.2-0.9-0.2-1.1c0.1,0,0.1-0.1,0.2-0.1
						l8.8-3c0.8-0.3,1.2-1.1,1-1.9c-0.2-0.8-0.5-1.7-0.7-2.7c-0.2-1-0.4-1.9-0.4-2.8c-0.1-0.9-0.1-1.7-0.1-2.4
						c0-0.9,0.1-1.2,0.1-1.3c0.1-0.2,0.2-0.4,0.3-0.5c0.1-0.1,0.2-0.2,0.5-0.4c0.3-0.2,0.6-0.4,1.1-0.7c0.5-0.3,1.1-0.6,1.7-0.9
						c0.8-0.4,1.6-0.7,2.2-1c0.4-0.1,0.6-0.2,0.8-0.3c0,0.2,0,0.5,0,0.9c0,1,0,2.2,0,3.5c0.1,1.4,0.2,2.8,0.5,4.5
						c0.3,1.7,0.9,3.6,1.7,5.3c0.8,1.7,1.6,3,2.5,4.1c0.9,1.1,2,2,3,2.5c1.1,0.6,2.2,0.8,3.4,0.8c1.1,0,2.2-0.3,3.3-0.8
						c1.7-0.8,3-2,3.7-3.5c0.7-1.4,1.1-3,1.2-4.7c0.1-1.6,0.1-3.4-0.1-5.3c-0.2-1.8-0.3-3.7-0.4-5.6c-0.1-1.8-0.2-3.7-0.1-5.6
						c0.1-1.8,0.4-3.5,1-5.2c0.6-1.6,1.5-3.1,2.7-4.5c1.2-1.4,3-2.6,5.2-3.6c2.4-1.1,4.7-1.7,6.9-1.7c2.3,0,4.4,0.4,6.5,1.3
						c2.1,0.9,4.1,2.3,5.9,4.1c1.9,1.8,3.6,4.1,5.1,6.7C1319.8,797.6,1320.6,797.8,1321.3,797.6z"/>
				</g>
			</g>
			<g>
				<path fill="#FFB019" d="M1051.3,992.1c-4.4-48.3-44.3-84.8-92.8-84.8c-2.9,0-5.8,0.1-8.6,0.4c-24.8,2.3-47.3,14.1-63.2,33.2
					c-15.9,19.2-23.5,43.4-21.2,68.2c4.4,48.3,44.3,84.8,92.8,84.8c2.9,0,5.8-0.1,8.6-0.4C1018.1,1088.8,1056,1043.3,1051.3,992.1z
					 M964.8,1070.8c-2.2,0.2-4.3,0.3-6.5,0.3c-17.5,0-34.3-6.5-47.3-18.3c-13.1-11.9-21.2-28.1-22.8-45.7c-1.7-18.7,4-37,16-51.5
					c12-14.5,29-23.4,47.7-25.1c2.2-0.2,4.3-0.3,6.5-0.3c17.5,0,34.3,6.5,47.3,18.3c13.1,11.9,21.2,28.1,22.8,45.7
					c1.7,18.7-4,37-16,51.5C1000.4,1060.1,983.5,1069,964.8,1070.8z"/>
				<path fill="#FFB019" d="M1001,1036.1c9.5-11.4,14-25.8,12.6-40.5c-2.6-28.3-26.8-50.4-55.2-50.4c-1.7,0-3.4,0.1-5.1,0.2
					c-14.7,1.4-28.1,8.4-37.6,19.8c-9.5,11.4-14,25.8-12.6,40.5c2.6,28.3,26.8,50.4,55.2,50.4c0,0,0,0,0,0c1.7,0,3.4-0.1,5.1-0.2
					C978.2,1054.5,991.5,1047.5,1001,1036.1z M979.6,1017.4c-0.8,2.3-2,4.4-3.7,6.3c-1.7,1.8-3.7,3.3-6.2,4.5c-2,1-4.3,1.7-6.7,2.3
					l-0.1,8.3c0,0.5-0.1,0.9-0.3,1.3c-0.3,0.5-0.7,0.9-1.2,1.3c-0.4,0.2-0.9,0.4-1.6,0.6c-0.6,0.1-1.2,0.2-2.1,0.3
					c-0.7,0.1-1.3,0.1-1.9,0.1c-0.2,0-0.5,0-0.7,0c-0.8,0-1.4-0.2-1.9-0.4c-0.9-0.4-1.4-1-1.6-1.4c-0.3-0.5-0.4-1.1-0.3-1.7l0.1-7.4
					c-0.8-0.1-1.5-0.2-2.2-0.3c-1.2-0.2-2.4-0.4-3.4-0.7c-1-0.3-1.9-0.6-2.7-0.9c-0.9-0.4-1.5-0.7-2-1.2c-0.6-0.5-1.1-1.3-1.4-2.2
					c-0.2-0.8-0.4-1.9-0.6-3.3c-0.1-1.1-0.1-2-0.2-2.7c0-0.8,0.1-1.5,0.3-2.1c0.2-0.7,0.6-1.2,1.1-1.6c0.5-0.3,1-0.5,1.6-0.6
					c0.1,0,0.2,0,0.3,0c0.7,0,1.4,0.2,2.4,0.7c0.7,0.4,1.7,0.7,2.8,1.1c1.1,0.4,2.5,0.7,4.1,1c1.5,0.3,3.4,0.3,5.4,0.1
					c3.1-0.3,5.3-1,6.6-2.2c1.2-1.1,1.7-2.4,1.5-4c-0.1-1-0.4-1.8-1-2.4c-0.7-0.7-1.5-1.3-2.6-1.8c-1.2-0.5-2.5-1-4-1.4
					c-1.6-0.4-3.2-0.9-4.9-1.3c-1.7-0.5-3.4-1.1-5.1-1.8c-1.7-0.7-3.4-1.7-4.8-2.9c-1.5-1.2-2.7-2.8-3.7-4.7c-1-1.9-1.6-4.2-1.9-6.8
					c-0.2-2.4,0-4.7,0.6-6.8c0.6-2.1,1.7-4,3.1-5.7c1.4-1.6,3.2-3.1,5.3-4.2c1.7-0.9,3.7-1.7,5.9-2.2l0.1-7.7c0-0.5,0.1-1,0.3-1.4
					c0.2-0.4,0.6-0.8,1.2-1.2c0.4-0.3,0.9-0.4,1.6-0.6c0.6-0.1,1.2-0.2,2.1-0.3c1-0.1,1.9-0.1,2.6-0.1c0.8,0,1.4,0.2,1.9,0.4
					c0.9,0.4,1.4,1,1.6,1.5c0.2,0.5,0.3,0.9,0.4,1.4c0,0.1,0,0.1,0,0.2l-0.1,6.9c0.4,0,0.8,0.1,1.2,0.1c1,0.1,2,0.3,2.8,0.5
					c0.9,0.2,1.7,0.5,2.4,0.7c0.9,0.3,1.5,0.6,1.9,1c0.4,0.3,0.7,0.7,1,1.1c0.2,0.4,0.4,0.8,0.6,1.3c0.1,0.4,0.2,1,0.3,1.6
					c0.1,0.5,0.2,1.2,0.2,1.9c0.1,0.9,0.1,1.7,0.1,2.4c0,0.8,0,1.4-0.2,1.9c-0.1,0.4-0.4,1.1-0.9,1.5c-0.4,0.3-0.9,0.5-1.4,0.6
					c-0.6,0.1-1.5-0.1-2.5-0.5c-0.7-0.3-1.6-0.6-2.7-0.9c-1.1-0.3-2.3-0.6-3.7-0.9c-1.3-0.2-2.7-0.3-4.3-0.1
					c-1.4,0.1-2.6,0.4-3.5,0.7c-0.9,0.3-1.5,0.7-2,1.1c-0.4,0.4-0.7,0.9-0.9,1.4c-0.2,0.6-0.2,1.2-0.2,1.8c0.1,1,0.4,1.8,1,2.4
					c0.7,0.7,1.5,1.3,2.7,1.8c1.2,0.5,2.6,1,4.1,1.4c1.6,0.4,3.3,0.9,5,1.4c1.8,0.5,3.5,1.1,5.2,1.8c1.8,0.7,3.4,1.7,4.9,2.9
					c1.5,1.2,2.8,2.8,3.7,4.6c1,1.8,1.6,4.1,1.9,6.7C980.7,1012.5,980.4,1015.1,979.6,1017.4z"/>
				<path fill="#FFD91E" d="M1009.9,1043.5c11.5-13.8,16.9-31.2,15.3-49c-3.1-34.2-32.5-61-66.8-61c-2,0-4.1,0.1-6.2,0.3
					c-17.8,1.6-33.9,10.1-45.4,23.9c-11.5,13.8-16.9,31.2-15.3,49c3.1,34.2,32.5,61,66.8,61c2,0,4.1-0.1,6.2-0.3
					C982.3,1065.8,998.4,1057.3,1009.9,1043.5z M963.7,1059.2c-1.8,0.2-3.6,0.2-5.4,0.2c0,0,0,0,0,0c-14.6,0-28.6-5.4-39.5-15.3
					c-10.9-9.9-17.7-23.5-19.1-38.2c-1.4-15.6,3.3-30.9,13.4-43c10.1-12.1,24.2-19.5,39.8-21c1.8-0.2,3.6-0.2,5.4-0.2
					c14.6,0,28.6,5.4,39.5,15.3c10.9,9.9,17.7,23.5,19.1,38.2c1.4,15.6-3.3,30.9-13.4,43C993.5,1050.3,979.4,1057.8,963.7,1059.2z"
					/>
				<g>
					<path fill="#04192D" d="M1054.6,991.8c-2.2-24.2-13.3-46.4-31.3-62.7c-17.8-16.2-40.9-25.1-64.9-25.1c-3,0-6,0.1-8.9,0.4
						c-25.7,2.4-49,14.6-65.5,34.4c-16.5,19.8-24.3,44.9-22,70.7c2.2,24.2,13.3,46.4,31.3,62.7c17.8,16.2,40.9,25.1,64.9,25.1
						c3,0,6-0.1,8.9-0.4C1020.3,1092,1059.5,1044.9,1054.6,991.8z M966.9,1093.5c-2.9,0.3-5.8,0.4-8.6,0.4
						c-48.5,0-88.4-36.5-92.8-84.8c-2.3-24.8,5.3-49,21.2-68.2c15.9-19.2,38.4-31,63.2-33.2c2.9-0.3,5.8-0.4,8.6-0.4
						c48.5,0,88.4,36.5,92.8,84.8C1056,1043.3,1018.1,1088.8,966.9,1093.5z"/>
					<path fill="#04192D" d="M1005.7,948.5c-13-11.8-29.8-18.3-47.3-18.3c-2.1,0-4.3,0.1-6.5,0.3c-18.7,1.7-35.6,10.6-47.7,25.1
						c-12,14.5-17.7,32.8-16,51.5c1.6,17.6,9.7,33.8,22.8,45.7c13,11.8,29.8,18.3,47.3,18.3c2.1,0,4.3-0.1,6.5-0.3
						c18.7-1.7,35.6-10.6,47.7-25.1c12-14.5,17.7-32.8,16-51.5C1026.9,976.6,1018.8,960.4,1005.7,948.5z M1009.9,1043.5
						c-11.5,13.8-27.6,22.3-45.4,23.9c-2.1,0.2-4.1,0.3-6.2,0.3c-34.3,0-63.6-26.8-66.8-61c-1.6-17.8,3.8-35.2,15.3-49
						c11.5-13.8,27.6-22.3,45.4-23.9c2.1-0.2,4.1-0.3,6.2-0.3c34.3,0,63.6,26.8,66.8,61C1026.8,1012.3,1021.4,1029.7,1009.9,1043.5z
						"/>
					<path fill="#04192D" d="M997.9,957.1c-10.9-9.9-24.9-15.3-39.5-15.3c-1.8,0-3.6,0.1-5.4,0.2c-15.6,1.4-29.8,8.9-39.8,21
						c-10.1,12.1-14.8,27.4-13.4,43c1.3,14.7,8.1,28.2,19.1,38.2c10.9,9.9,24.9,15.3,39.5,15.3c0,0,0,0,0,0c1.8,0,3.6-0.1,5.4-0.2
						c15.6-1.4,29.8-8.9,39.8-21c10.1-12.1,14.8-27.4,13.4-43C1015.6,980.6,1008.8,967,997.9,957.1z M1001,1036.1
						c-9.5,11.4-22.8,18.4-37.6,19.8c-1.7,0.2-3.4,0.2-5.1,0.2c0,0,0,0,0,0c-28.4,0-52.6-22.1-55.2-50.4
						c-1.4-14.7,3.1-29.1,12.6-40.5c9.5-11.4,22.8-18.4,37.6-19.8c1.7-0.2,3.4-0.2,5.1-0.2c28.4,0,52.6,22.1,55.2,50.4
						C1015,1010.3,1010.5,1024.7,1001,1036.1z"/>
					<path fill="#04192D" d="M980.4,1009.7c-0.2-2.6-0.9-4.9-1.9-6.7c-1-1.8-2.3-3.4-3.7-4.6c-1.5-1.2-3.1-2.2-4.9-2.9
						c-1.7-0.7-3.4-1.3-5.2-1.8c-1.7-0.5-3.3-0.9-5-1.4c-1.5-0.4-2.9-0.9-4.1-1.4c-1.1-0.5-2-1.1-2.7-1.8c-0.6-0.6-0.9-1.4-1-2.4
						c-0.1-0.7,0-1.3,0.2-1.8c0.2-0.5,0.5-1,0.9-1.4c0.5-0.4,1.1-0.8,2-1.1c0.9-0.3,2.1-0.6,3.5-0.7c1.5-0.1,3-0.1,4.3,0.1
						c1.4,0.2,2.6,0.5,3.7,0.9c1.1,0.3,2,0.6,2.7,0.9c1.1,0.4,1.9,0.6,2.5,0.5c0.5,0,1-0.3,1.4-0.6c0.5-0.4,0.8-1.1,0.9-1.5
						c0.1-0.5,0.2-1.1,0.2-1.9c0-0.7-0.1-1.5-0.1-2.4c-0.1-0.7-0.1-1.4-0.2-1.9c-0.1-0.6-0.2-1.1-0.3-1.6c-0.2-0.5-0.4-1-0.6-1.3
						c-0.3-0.4-0.6-0.8-1-1.1c-0.4-0.4-1.1-0.7-1.9-1c-0.7-0.3-1.6-0.5-2.4-0.7c-0.9-0.2-1.9-0.4-2.8-0.5c-0.4-0.1-0.8-0.1-1.2-0.1
						l0.1-6.9c0-0.1,0-0.1,0-0.2c0-0.5-0.2-0.9-0.4-1.4c-0.2-0.5-0.7-1.1-1.6-1.5c-0.5-0.2-1.2-0.3-1.9-0.4c-0.7,0-1.5,0-2.6,0.1
						c-0.8,0.1-1.5,0.2-2.1,0.3c-0.6,0.1-1.2,0.3-1.6,0.6c-0.6,0.3-1,0.7-1.2,1.2c-0.2,0.4-0.3,0.8-0.3,1.4l-0.1,7.7
						c-2.2,0.5-4.2,1.3-5.9,2.2c-2.1,1.1-3.9,2.5-5.3,4.2c-1.4,1.7-2.5,3.6-3.1,5.7c-0.6,2.1-0.8,4.4-0.6,6.8c0.2,2.7,0.9,5,1.9,6.8
						c1,1.9,2.2,3.4,3.7,4.7c1.5,1.2,3.1,2.2,4.8,2.9c1.7,0.7,3.4,1.3,5.1,1.8c1.7,0.5,3.3,0.9,4.9,1.3c1.5,0.4,2.8,0.9,4,1.4
						c1.1,0.5,2,1.1,2.6,1.8c0.6,0.6,0.9,1.4,1,2.4c0.1,1.6-0.3,2.9-1.5,4c-1.3,1.2-3.5,1.9-6.6,2.2c-2.1,0.2-3.9,0.1-5.4-0.1
						c-1.6-0.3-2.9-0.6-4.1-1c-1.1-0.4-2.1-0.8-2.8-1.1c-1-0.5-1.7-0.7-2.4-0.7c-0.1,0-0.2,0-0.3,0c-0.6,0.1-1.1,0.3-1.6,0.6
						c-0.5,0.4-0.9,0.9-1.1,1.6c-0.2,0.5-0.3,1.2-0.3,2.1c0,0.7,0,1.6,0.2,2.7c0.1,1.4,0.3,2.5,0.6,3.3c0.3,1,0.8,1.7,1.4,2.2
						c0.5,0.4,1.2,0.8,2,1.2c0.8,0.3,1.7,0.6,2.7,0.9c1,0.3,2.1,0.5,3.4,0.7c0.7,0.1,1.5,0.2,2.2,0.3l-0.1,7.4
						c0,0.6,0.1,1.2,0.3,1.7c0.2,0.4,0.7,1.1,1.6,1.4c0.5,0.2,1.1,0.3,1.9,0.4c0.2,0,0.4,0,0.7,0c0.5,0,1.2,0,1.9-0.1
						c0.8-0.1,1.5-0.2,2.1-0.3c0.6-0.2,1.1-0.3,1.6-0.6c0.6-0.3,1-0.7,1.2-1.3c0.2-0.4,0.3-0.8,0.3-1.3l0.1-8.3
						c2.4-0.5,4.7-1.3,6.7-2.3c2.4-1.2,4.5-2.7,6.2-4.5c1.7-1.8,2.9-3.9,3.7-6.3C980.4,1015.1,980.7,1012.5,980.4,1009.7z"/>
				</g>
			</g>
			<g>
				<path fill="#F79D7A" d="M1387.1,900.6c-8.4,0.2-18.5,6.9-22.2,21.1c-1.3,4.9-6.2,9.2-14.5,12.8c-0.4,0.2-0.9,0.2-1.4,0
					c-0.4-0.2-0.8-0.5-1-1c-21.8-51.3-82.4-85.7-150.9-85.7c-26.9,0-53.6,5.4-77,15.7c-0.5,0.2-1,0.2-1.5,0c-0.5-0.2-0.8-0.6-1-1.1
					c-1-3.4-2.4-6.6-4.1-9.8c-6.8-12.4-17.6-20.8-27-20.8c-2.3,0-4.3,0.5-6.2,1.5c-9.6,5.3-10.4,22.5-1.7,38.3
					c1.9,3.5,4.3,6.8,6.9,9.8c0.3,0.4,0.5,0.9,0.5,1.4c0,0.5-0.3,0.9-0.7,1.3c-15.6,12.2-27.7,26.5-35.9,42.5c-0.3,0.6-0.9,1-1.6,1
					h-23c-9.1,0-16.5,7.4-16.5,16.5v21.4c0,9.1,7.4,16.5,16.5,16.5h11.9c0.9,0,1.7,0.7,1.8,1.6c3.1,30.4,20.1,58.9,48,80.2
					c0.4,0.3,0.6,0.8,0.7,1.3c0,0.5-0.1,1-0.5,1.4c-4.1,4.5-7.4,10.4-9.6,16.9c-5.7,17.2-1.8,34,8.6,37.4c1.2,0.4,2.5,0.6,3.9,0.6
					c9.8,0,20.4-10.7,25.3-25.5c1.2-3.6,2-7.3,2.4-11.1c0.1-0.6,0.4-1.1,0.9-1.4c0.5-0.3,1.1-0.3,1.6-0.1
					c23.5,10.3,50.2,15.8,77.3,15.8c25.9,0,51.7-5,74.4-14.6c0.2-0.1,0.5-0.1,0.7-0.1c0.3,0,0.6,0.1,0.9,0.2
					c0.5,0.3,0.8,0.8,0.9,1.3c0.4,3.3,1.2,6.6,2.2,9.9c4.9,14.8,15.5,25.5,25.3,25.5c1.3,0,2.6-0.2,3.9-0.6
					c10.4-3.4,14.3-20.2,8.6-37.4c-1.9-5.9-4.9-11.3-8.4-15.6c-0.3-0.4-0.5-0.9-0.4-1.4c0.1-0.5,0.3-0.9,0.7-1.2
					c32.4-24,50.3-56.6,50.3-91.6c0-9.4-1.3-18.8-3.9-27.9c-0.3-0.9,0.2-1.8,1-2.1c11.6-4.9,18.6-11.4,20.6-19.4
					c2.5-9.6,8.5-14,13.4-14.1l0.2,0c3.9,0,7,2.7,8.6,7.5c0.6,2,2.4,3.3,4.5,3.3c0.5,0,1-0.1,1.4-0.2c1.2-0.4,2.2-1.2,2.7-2.3
					c0.6-1.1,0.7-2.4,0.3-3.6C1402.2,905.7,1395.3,900.3,1387.1,900.6z M1092.8,948.3c-7.4,0-13.4-6-13.4-13.4
					c0-7.4,6-13.4,13.4-13.4s13.4,6,13.4,13.4C1106.2,942.3,1100.2,948.3,1092.8,948.3z M1255.1,889.2c-1.2,3.3-4.3,5.4-7.8,5.4
					c-1,0-1.9-0.2-2.8-0.5c-10.5-3.8-25-5.7-43-5.7c-25.1,0-48.1,3.8-48.3,3.8c-0.5,0.1-0.9,0.1-1.4,0.1c-4,0-7.5-2.9-8.1-6.9
					c-0.8-4.5,2.3-8.8,6.8-9.5c1-0.2,24.5-4.1,50.7-4.1c20.1,0,36.6,2.3,48.9,6.7c2.1,0.8,3.7,2.3,4.7,4.3
					C1255.8,884.9,1255.9,887.1,1255.1,889.2z"/>
				<g>
					<path fill="#04192D" d="M1408.5,913.5c-3.3-10.2-11.2-16.6-20.8-16.6c-0.2,0-0.5,0-0.7,0c-9.7,0.3-21.4,7.7-25.6,23.8
						c-0.9,3.5-4.6,6.8-10.8,9.7c-22.9-51.6-84.3-86.2-153.4-86.2c-26.7,0-53.2,5.3-76.6,15.2c-1-2.9-2.3-5.8-3.8-8.5
						c-7.4-13.6-19.5-22.7-30.1-22.7c-2.9,0-5.5,0.7-7.9,2c-11.4,6.2-12.8,25.6-3.2,43.2c1.8,3.2,3.8,6.3,6.2,9
						c-15,12-26.8,26-34.9,41.6h-21.9c-11,0-20,9-20,20v21.4c0,11,9,20,20,20h10.3c3.5,30.2,20.4,58.5,47.7,79.9
						c-3.8,4.7-7,10.4-9.1,16.8c-6.3,19-1.4,37.9,10.8,41.9c1.6,0.5,3.3,0.8,5,0.8c11.5,0,23.3-11.5,28.7-28c1-3.1,1.8-6.2,2.2-9.4
						c23.4,9.9,49.8,15.2,76.5,15.2c25.6,0,51-4.8,73.7-14c0.5,2.8,1.2,5.6,2.1,8.3c5.5,16.5,17.3,28,28.7,28c1.7,0,3.4-0.3,5-0.8
						c12.3-4.1,17.1-22.9,10.8-41.9c-1.9-5.7-4.6-10.9-7.9-15.3c32-24.3,50.3-58.2,50.3-93.4c0-9.2-1.2-18.4-3.6-27.3
						c11.8-5.3,19-12.4,21.3-21.2c2-7.7,6.6-11.4,10-11.5h0.1c2.9,0,4.4,2.7,5.2,5c1.1,3.4,4.3,5.8,7.9,5.8c0.9,0,1.7-0.1,2.5-0.4
						c2.1-0.7,3.8-2.1,4.8-4.1C1409,917.9,1409.1,915.6,1408.5,913.5z M1404.8,918.2c-0.6,1.1-1.5,1.9-2.7,2.3
						c-0.5,0.1-0.9,0.2-1.4,0.2c-2,0-3.8-1.3-4.5-3.3c-1.5-4.8-4.7-7.5-8.6-7.5l-0.2,0c-4.9,0.1-10.9,4.6-13.4,14.1
						c-2.1,8-9,14.5-20.6,19.4c-0.8,0.3-1.3,1.3-1,2.1c2.6,9.1,3.9,18.5,3.9,27.9c0,35.1-17.9,67.6-50.3,91.6
						c-0.4,0.3-0.7,0.7-0.7,1.2c-0.1,0.5,0.1,1,0.4,1.4c3.6,4.3,6.5,9.8,8.4,15.6c5.7,17.2,1.8,34-8.6,37.4
						c-1.2,0.4-2.5,0.6-3.9,0.6c-9.8,0-20.4-10.7-25.3-25.5c-1.1-3.3-1.8-6.6-2.2-9.9c-0.1-0.6-0.4-1-0.9-1.3
						c-0.3-0.2-0.6-0.2-0.9-0.2c-0.2,0-0.5,0-0.7,0.1c-22.8,9.5-48.5,14.6-74.4,14.6c-27,0-53.8-5.5-77.3-15.8
						c-0.5-0.2-1.1-0.2-1.6,0.1c-0.5,0.3-0.8,0.8-0.9,1.4c-0.4,3.8-1.2,7.5-2.4,11.1c-4.9,14.8-15.5,25.5-25.3,25.5
						c-1.3,0-2.6-0.2-3.9-0.6c-10.4-3.4-14.3-20.2-8.6-37.4c2.2-6.5,5.5-12.4,9.6-16.9c0.3-0.4,0.5-0.9,0.5-1.4c0-0.5-0.3-1-0.7-1.3
						c-27.9-21.3-44.9-49.8-48-80.2c-0.1-0.9-0.9-1.6-1.8-1.6h-11.9c-9.1,0-16.5-7.4-16.5-16.5v-21.4c0-9.1,7.4-16.5,16.5-16.5h23
						c0.7,0,1.3-0.4,1.6-1c8.2-16,20.2-30.3,35.9-42.5c0.4-0.3,0.6-0.8,0.7-1.3c0-0.5-0.1-1-0.5-1.4c-2.7-3-5-6.2-6.9-9.8
						c-8.7-15.9-7.9-33.1,1.7-38.3c1.8-1,3.9-1.5,6.2-1.5c9.4,0,20.2,8.4,27,20.8c1.7,3.1,3.1,6.4,4.1,9.8c0.1,0.5,0.5,0.9,1,1.1
						c0.5,0.2,1,0.2,1.5,0c23.4-10.3,50.1-15.7,77-15.7c68.5,0,129.1,34.4,150.9,85.7c0.2,0.4,0.5,0.8,1,1c0.4,0.2,0.9,0.2,1.4,0
						c8.4-3.5,13.2-7.9,14.5-12.8c3.7-14.3,13.8-20.9,22.2-21.1c8.2-0.3,15.1,5.2,18,14.1C1405.4,915.8,1405.3,917.1,1404.8,918.2z"
						/>
					<path fill="#04192D" d="M1092.8,921.5c-7.4,0-13.4,6-13.4,13.4c0,7.4,6,13.4,13.4,13.4s13.4-6,13.4-13.4
						C1106.2,927.5,1100.2,921.5,1092.8,921.5z"/>
					<path fill="#04192D" d="M1254.8,882.9c-0.9-2-2.6-3.5-4.7-4.3c-12.3-4.5-28.8-6.7-48.9-6.7c-26.2,0-49.7,3.9-50.7,4.1
						c-4.5,0.8-7.5,5-6.8,9.5c0.7,4,4.1,6.9,8.1,6.9c0.5,0,0.9,0,1.4-0.1c0.2,0,23.2-3.8,48.3-3.8c18,0,32.5,1.9,43,5.7
						c0.9,0.3,1.9,0.5,2.8,0.5c3.5,0,6.6-2.2,7.8-5.4C1255.9,887.1,1255.8,884.9,1254.8,882.9z"/>
				</g>
			</g>
			<g>
				<g>
					<g>
						<path fill="#70BF6C" d="M1026.7,1045.3c-1.4,0-2.8-0.3-4-0.8c-35.2,20.4-59.2,60.6-59.2,106.8c0,60.8,43.9,100.1,111.8,100.1
							c67.9,0,111.8-39.3,111.8-100.1c0-46.2-24-86.3-59.2-106.8c-1.2,0.5-2.6,0.8-4,0.8H1026.7z"/>
						<path fill="#2D9642" d="M1127.4,999.4c4.8-9.3,7.4-15.3,2.5-19c-1.1-0.8-2.3-1.2-3.7-1.2c-8.8,0-21.9,14.5-26.2,20.1
							c-0.6,0.8-1.7,1.1-2.7,0.8c-1-0.3-1.6-1.3-1.6-2.3c0-12.7-14.4-21.2-20.2-21.2s-20.2,8.4-20.2,21.2c0,1-0.7,2-1.6,2.3
							c-1,0.3-2.1,0-2.7-0.8c-4.3-5.6-17.5-20.1-26.2-20.1c-1.4,0-2.6,0.4-3.7,1.2c-4.9,3.7-2.3,9.7,2.5,19c3.1,6,6.1,11.8,5.2,16.8
							v9.1h93.5v-9.1C1121.3,1011.1,1124.2,1005.4,1127.4,999.4z"/>
						<path fill="#04192D" d="M1132.1,1041.2c1.2-1.7,2-3.7,2-5.9c0-4.5-3-8.3-7.1-9.6v-9.7c0-0.2,0-0.3,0-0.5
							c-0.7-3.5,2.1-8.8,4.7-13.9c4.3-8.3,9.6-18.6,1.2-25.1c-1.9-1.5-4.2-2.2-6.6-2.2c-9.6,0-20.8,11.2-26.5,17.7
							c-3.4-12-16.8-20.3-24.3-20.3c-7.4,0-20.8,8.3-24.3,20.3c-5.7-6.5-17-17.7-26.5-17.7c-2.5,0-4.7,0.7-6.6,2.2
							c-8.5,6.5-3.1,16.8,1.2,25.1c2.7,5.1,5.4,10.4,4.7,13.9c0,0.2,0,0.3,0,0.5v9.7c-4.1,1.3-7.1,5.1-7.1,9.6c0,2.2,0.7,4.3,2,5.9
							c-35.8,21.5-60,62.8-60,110c0,63.8,45.8,105,116.7,105c70.9,0,116.7-41.2,116.7-105
							C1192.1,1103.9,1167.9,1062.7,1132.1,1041.2z M1023.4,999.4c-4.8-9.3-7.4-15.3-2.5-19c1.1-0.8,2.3-1.2,3.7-1.2
							c8.8,0,21.9,14.5,26.2,20.1c0.6,0.8,1.7,1.1,2.7,0.8c1-0.3,1.6-1.3,1.6-2.3c0-12.7,14.4-21.2,20.2-21.2s20.2,8.4,20.2,21.2
							c0,1,0.7,2,1.6,2.3c1,0.3,2.1,0,2.7-0.8c4.3-5.6,17.5-20.1,26.2-20.1c1.4,0,2.6,0.4,3.7,1.2c4.9,3.7,2.3,9.7-2.5,19
							c-3.1,6-6.1,11.8-5.2,16.8v9.1h-93.5v-9.1C1029.5,1011.1,1026.6,1005.4,1023.4,999.4z M1075.4,1251.3
							c-67.9,0-111.8-39.3-111.8-100.1c0-46.2,24-86.3,59.2-106.8c1.2,0.5,2.6,0.8,4,0.8h97.3c1.4,0,2.8-0.3,4-0.8
							c35.2,20.4,59.2,60.6,59.2,106.8C1187.2,1212,1143.3,1251.3,1075.4,1251.3z"/>
					</g>
					<path fill="#04192D" d="M1101.4,1150.8c-1.3-2.4-3-4.4-4.9-6c-1.9-1.6-4.1-2.9-6.4-3.8c-2.2-0.9-4.5-1.7-6.8-2.4
						c-2.2-0.6-4.4-1.2-6.5-1.8c-2-0.5-3.8-1.2-5.4-1.8c-1.4-0.6-2.6-1.4-3.5-2.4c-0.7-0.8-1.2-1.8-1.3-3.2c-0.1-0.9,0-1.7,0.2-2.4
						c0.2-0.7,0.6-1.3,1.2-1.8c0.6-0.6,1.5-1.1,2.6-1.5c1.2-0.5,2.8-0.8,4.6-0.9c2-0.2,3.9-0.1,5.6,0.2c1.8,0.3,3.4,0.7,4.8,1.1
						c1.4,0.4,2.6,0.9,3.6,1.2c1.4,0.6,2.5,0.8,3.3,0.7c0.7-0.1,1.4-0.3,1.9-0.8c0.7-0.6,1-1.4,1.2-2c0.2-0.6,0.3-1.4,0.2-2.4
						c0-0.9-0.1-2-0.2-3.2c-0.1-0.9-0.2-1.8-0.3-2.5c-0.1-0.8-0.3-1.5-0.4-2c-0.2-0.7-0.5-1.3-0.8-1.8c-0.3-0.5-0.8-1-1.3-1.4
						c-0.6-0.5-1.4-0.9-2.5-1.3c-1-0.4-2-0.7-3.2-1c-1.2-0.3-2.4-0.5-3.7-0.7c-0.5-0.1-1.1-0.1-1.6-0.2l0.1-9.1c0-0.1,0-0.2,0-0.2
						c-0.1-0.6-0.2-1.2-0.5-1.9c-0.3-0.6-0.9-1.4-2.1-1.9c-0.7-0.3-1.5-0.4-2.6-0.5c-0.9-0.1-2,0-3.4,0.1c-1.1,0.1-2,0.2-2.7,0.4
						c-0.9,0.2-1.5,0.4-2.1,0.8c-0.7,0.4-1.3,1-1.5,1.5c-0.3,0.5-0.4,1.1-0.4,1.8l-0.1,10.1c-2.9,0.7-5.5,1.7-7.7,2.9
						c-2.8,1.5-5.2,3.3-7,5.5c-1.9,2.2-3.2,4.7-4.1,7.5c-0.8,2.8-1.1,5.8-0.8,9c0.3,3.5,1.1,6.5,2.4,9c1.3,2.4,3,4.5,4.9,6.1
						c1.9,1.6,4,2.9,6.3,3.9c2.2,0.9,4.4,1.8,6.7,2.4c2.2,0.6,4.3,1.2,6.4,1.8c1.9,0.5,3.7,1.1,5.3,1.8c1.4,0.6,2.6,1.4,3.4,2.3
						c0.7,0.8,1.1,1.8,1.3,3.2c0.2,2.1-0.4,3.8-2,5.2c-1.7,1.6-4.6,2.5-8.7,2.9c-2.7,0.2-5.1,0.2-7.1-0.2c-2.1-0.4-3.9-0.8-5.3-1.3
						c-1.5-0.5-2.7-1-3.7-1.5c-1.3-0.6-2.3-0.9-3.1-0.9c-0.1,0-0.3,0-0.3,0c-0.8,0.1-1.5,0.3-2.1,0.8c-0.7,0.5-1.1,1.2-1.4,2.1
						c-0.2,0.7-0.3,1.6-0.3,2.7c0,0.9,0.1,2.1,0.2,3.5c0.2,1.9,0.4,3.3,0.7,4.3c0.4,1.3,1,2.3,1.8,2.9c0.7,0.6,1.5,1.1,2.7,1.5
						c1.1,0.4,2.2,0.8,3.5,1.2c1.3,0.4,2.8,0.7,4.4,0.9c1,0.1,1.9,0.3,2.9,0.4l-0.1,9.8c-0.1,0.8,0.1,1.6,0.4,2.3
						c0.3,0.6,0.9,1.4,2.1,1.9c0.7,0.3,1.5,0.4,2.5,0.5c0.3,0,0.6,0,0.9,0c0.7,0,1.5,0,2.5-0.1c1.1-0.1,2-0.2,2.7-0.4
						c0.8-0.2,1.5-0.4,2-0.7c0.8-0.4,1.3-1,1.6-1.7c0.2-0.5,0.4-1.1,0.4-1.7l0.1-10.8c3.2-0.7,6.2-1.7,8.8-3
						c3.2-1.6,5.9-3.5,8.1-5.9c2.2-2.4,3.9-5.2,4.9-8.2c1-3.1,1.4-6.5,1.1-10.1C1103.5,1156.2,1102.7,1153.2,1101.4,1150.8z"/>
				</g>
				<g>
					<g>
						<path fill="#70BF6C" d="M1190.3,1076.9c-1.2,0-2.4-0.3-3.4-0.7c-29.9,17.4-50.3,51.5-50.3,90.8c0,51.7,37.3,85.1,95.1,85.1
							c57.8,0,95.1-33.4,95.1-85.1c0-39.2-20.4-73.4-50.3-90.8c-1,0.5-2.2,0.7-3.4,0.7H1190.3z"/>
						<path fill="#2D9642" d="M1275.9,1037.9c4.1-7.9,6.3-13,2.1-16.2c-0.9-0.7-1.9-1-3.1-1c-7.4,0-18.6,12.3-22.3,17.1
							c-0.5,0.7-1.5,1-2.3,0.7c-0.8-0.3-1.4-1.1-1.4-2c0-10.8-12.2-18-17.2-18c-5,0-17.2,7.2-17.2,18c0,0.9-0.6,1.7-1.4,2
							c-0.8,0.3-1.8,0-2.3-0.7c-3.7-4.8-14.9-17.1-22.3-17.1c-1.2,0-2.2,0.3-3.1,1c-4.2,3.2-2,8.2,2.1,16.2c2.7,5.1,5.2,10,4.4,14.3
							v7.7h79.5v-7.7C1270.7,1047.9,1273.2,1043,1275.9,1037.9z"/>
						<path fill="#04192D" d="M1279.9,1073.4c1-1.4,1.7-3.1,1.7-5c0-3.8-2.5-7.1-6-8.1v-8.3c0-0.1,0-0.3,0-0.4
							c-0.6-2.9,1.8-7.4,4-11.8c3.7-7.1,8.2-15.8,1-21.3c-1.6-1.2-3.5-1.9-5.6-1.9c-8.2,0-17.7,9.6-22.6,15.1
							c-2.9-10.2-14.3-17.3-20.6-17.3s-17.7,7-20.6,17.3c-4.8-5.5-14.4-15.1-22.6-15.1c-2.1,0-4,0.6-5.6,1.9
							c-7.2,5.5-2.7,14.3,1,21.3c2.3,4.4,4.6,8.9,4,11.8c0,0.1,0,0.3,0,0.4v8.3c-3.5,1.1-6,4.3-6,8.1c0,1.9,0.6,3.6,1.7,5
							c-30.4,18.3-51,53.4-51,93.5c0,54.2,38.9,89.2,99.2,89.2c60.3,0,99.2-35,99.2-89.2C1330.9,1126.8,1310.3,1091.7,1279.9,1073.4
							z M1187.5,1037.9c-4.1-7.9-6.3-13-2.1-16.2c0.9-0.7,1.9-1,3.1-1c7.4,0,18.6,12.3,22.3,17.1c0.5,0.7,1.5,1,2.3,0.7
							c0.8-0.3,1.4-1.1,1.4-2c0-10.8,12.2-18,17.2-18c5,0,17.2,7.2,17.2,18c0,0.9,0.6,1.7,1.4,2c0.8,0.3,1.8,0,2.3-0.7
							c3.7-4.8,14.9-17.1,22.3-17.1c1.2,0,2.2,0.3,3.1,1c4.2,3.2,2,8.2-2.1,16.2c-2.7,5.1-5.2,10-4.4,14.3v7.7H1192v-7.7
							C1192.7,1047.9,1190.2,1043,1187.5,1037.9z M1231.7,1252c-57.8,0-95.1-33.4-95.1-85.1c0-39.2,20.4-73.4,50.3-90.8
							c1,0.5,2.2,0.7,3.4,0.7h82.7c1.2,0,2.4-0.3,3.4-0.7c29.9,17.4,50.3,51.5,50.3,90.8C1326.8,1218.6,1289.5,1252,1231.7,1252z"/>
					</g>
					<path fill="#04192D" d="M1253.8,1166.6c-1.1-2-2.5-3.8-4.2-5.1c-1.6-1.3-3.5-2.4-5.4-3.2c-1.9-0.8-3.8-1.4-5.8-2
						c-1.9-0.5-3.7-1-5.5-1.5c-1.7-0.4-3.3-1-4.6-1.6c-1.2-0.5-2.2-1.2-3-2c-0.6-0.7-1-1.6-1.1-2.7c-0.1-0.7,0-1.4,0.2-2
						c0.2-0.6,0.5-1.1,1-1.5c0.5-0.5,1.3-0.9,2.2-1.3c1-0.4,2.3-0.7,3.9-0.8c1.7-0.2,3.3-0.1,4.8,0.1c1.5,0.3,2.9,0.6,4.1,1
						c1.2,0.4,2.2,0.7,3,1.1c1.2,0.5,2.1,0.7,2.8,0.6c0.6-0.1,1.2-0.3,1.6-0.6c0.6-0.5,0.9-1.2,1-1.7c0.2-0.6,0.2-1.2,0.2-2.1
						c0-0.8-0.1-1.7-0.2-2.7c-0.1-0.8-0.2-1.5-0.3-2.1c-0.1-0.7-0.2-1.3-0.4-1.7c-0.2-0.6-0.4-1.1-0.7-1.5c-0.3-0.4-0.6-0.8-1.1-1.2
						c-0.5-0.4-1.2-0.8-2.2-1.1c-0.8-0.3-1.7-0.6-2.7-0.8c-1-0.3-2.1-0.5-3.2-0.6c-0.4-0.1-0.9-0.1-1.3-0.2l0.1-7.7
						c0-0.1,0-0.1,0-0.2c0-0.5-0.2-1.1-0.4-1.6c-0.2-0.5-0.7-1.2-1.8-1.6c-0.6-0.2-1.3-0.4-2.2-0.4c-0.8,0-1.7,0-2.9,0.1
						c-0.9,0.1-1.7,0.2-2.3,0.3c-0.7,0.2-1.3,0.4-1.8,0.7c-0.6,0.4-1.1,0.8-1.3,1.3c-0.2,0.4-0.4,0.9-0.4,1.5l-0.1,8.6
						c-2.4,0.6-4.6,1.4-6.6,2.5c-2.4,1.3-4.4,2.8-6,4.7c-1.6,1.9-2.8,4-3.5,6.4c-0.7,2.3-0.9,4.9-0.7,7.6c0.3,3,1,5.5,2.1,7.6
						c1.1,2.1,2.5,3.8,4.2,5.2c1.6,1.3,3.4,2.5,5.4,3.3c1.9,0.8,3.8,1.5,5.7,2c1.9,0.5,3.7,1,5.5,1.5c1.7,0.4,3.2,1,4.5,1.6
						c1.2,0.6,2.2,1.2,2.9,2c0.6,0.7,1,1.5,1.1,2.7c0.2,1.8-0.4,3.2-1.7,4.5c-1.4,1.3-3.9,2.2-7.4,2.5c-2.3,0.2-4.4,0.2-6.1-0.1
						c-1.8-0.3-3.3-0.7-4.5-1.1c-1.3-0.5-2.3-0.9-3.2-1.3c-1.1-0.5-1.9-0.8-2.7-0.8c-0.1,0-0.2,0-0.3,0c-0.7,0.1-1.3,0.3-1.8,0.7
						c-0.6,0.4-1,1-1.2,1.8c-0.2,0.6-0.3,1.4-0.3,2.3c0,0.8,0.1,1.7,0.2,3c0.1,1.6,0.3,2.8,0.6,3.7c0.3,1.1,0.9,1.9,1.6,2.5
						c0.6,0.5,1.3,0.9,2.3,1.3c0.9,0.4,1.9,0.7,3,1c1.1,0.3,2.4,0.6,3.7,0.8c0.8,0.1,1.6,0.2,2.5,0.3l-0.1,8.3
						c-0.1,0.7,0.1,1.4,0.4,1.9c0.2,0.5,0.7,1.2,1.8,1.6c0.6,0.2,1.3,0.4,2.1,0.4c0.2,0,0.5,0,0.8,0c0.6,0,1.3,0,2.1-0.1
						c0.9-0.1,1.7-0.2,2.3-0.4c0.7-0.2,1.2-0.4,1.7-0.6c0.6-0.4,1.1-0.8,1.4-1.4c0.2-0.4,0.3-0.9,0.3-1.5l0.1-9.2
						c2.7-0.6,5.2-1.4,7.5-2.5c2.7-1.3,5-3,6.9-5c1.9-2,3.3-4.4,4.2-7c0.9-2.6,1.2-5.5,0.9-8.6
						C1255.6,1171.2,1254.9,1168.7,1253.8,1166.6z"/>
				</g>
				<g>
					<g>
						<path fill="#70BF6C" d="M868.4,1076.9c-1.2,0-2.4-0.3-3.4-0.7c-29.9,17.4-50.3,51.5-50.3,90.8c0,51.7,37.3,85.1,95.1,85.1
							c57.8,0,95.1-33.4,95.1-85.1c0-39.2-20.4-73.4-50.3-90.8c-1,0.5-2.2,0.7-3.4,0.7H868.4z"/>
						<path fill="#2D9642" d="M954,1037.9c4.1-7.9,6.3-13,2.1-16.2c-0.9-0.7-1.9-1-3.1-1c-7.4,0-18.6,12.3-22.3,17.1
							c-0.5,0.7-1.5,1-2.3,0.7c-0.8-0.3-1.4-1.1-1.4-2c0-10.8-12.2-18-17.2-18c-5,0-17.2,7.2-17.2,18c0,0.9-0.6,1.7-1.4,2
							c-0.8,0.3-1.8,0-2.3-0.7c-3.7-4.8-14.9-17.1-22.3-17.1c-1.2,0-2.2,0.3-3.1,1c-4.2,3.2-2,8.2,2.1,16.2c2.7,5.1,5.2,10,4.4,14.3
							v7.7h79.5v-7.7C948.8,1047.9,951.3,1043,954,1037.9z"/>
						<path fill="#04192D" d="M958,1073.4c1-1.4,1.7-3.1,1.7-5c0-3.8-2.5-7.1-6-8.1v-8.3c0-0.1,0-0.3,0-0.4c-0.6-2.9,1.8-7.4,4-11.8
							c3.7-7.1,8.2-15.8,1-21.3c-1.6-1.2-3.5-1.9-5.6-1.9c-8.1,0-17.7,9.6-22.6,15.1c-2.9-10.2-14.3-17.3-20.6-17.3
							s-17.7,7-20.6,17.3c-4.8-5.5-14.4-15.1-22.6-15.1c-2.1,0-4,0.6-5.6,1.9c-7.2,5.5-2.7,14.3,1,21.3c2.3,4.4,4.6,8.9,4,11.8
							c0,0.1,0,0.3,0,0.4v8.3c-3.5,1.1-6,4.3-6,8.1c0,1.9,0.6,3.6,1.7,5c-30.4,18.3-51,53.4-51,93.5c0,54.2,38.9,89.2,99.2,89.2
							s99.2-35,99.2-89.2C1009,1126.8,988.4,1091.7,958,1073.4z M865.6,1037.9c-4.1-7.9-6.3-13-2.1-16.2c0.9-0.7,1.9-1,3.1-1
							c7.4,0,18.6,12.3,22.3,17.1c0.5,0.7,1.5,1,2.3,0.7c0.8-0.3,1.4-1.1,1.4-2c0-10.8,12.2-18,17.2-18c5,0,17.2,7.2,17.2,18
							c0,0.9,0.6,1.7,1.4,2c0.8,0.3,1.8,0,2.3-0.7c3.7-4.8,14.9-17.1,22.3-17.1c1.2,0,2.2,0.3,3.1,1c4.2,3.2,2,8.2-2.1,16.2
							c-2.7,5.1-5.2,10-4.4,14.3v7.7h-79.5v-7.7C870.8,1047.9,868.3,1043,865.6,1037.9z M909.8,1252c-57.8,0-95.1-33.4-95.1-85.1
							c0-39.2,20.4-73.4,50.3-90.8c1,0.5,2.2,0.7,3.4,0.7h82.7c1.2,0,2.4-0.3,3.4-0.7c29.9,17.4,50.3,51.5,50.3,90.8
							C1004.9,1218.6,967.6,1252,909.8,1252z"/>
					</g>
					<path fill="#04192D" d="M931.9,1166.6c-1.1-2-2.5-3.8-4.2-5.1c-1.6-1.3-3.5-2.4-5.4-3.2c-1.9-0.8-3.8-1.4-5.8-2
						c-1.9-0.5-3.7-1-5.5-1.5c-1.7-0.4-3.3-1-4.6-1.6c-1.2-0.5-2.2-1.2-3-2c-0.6-0.7-1-1.6-1.1-2.7c-0.1-0.7,0-1.4,0.2-2
						c0.2-0.6,0.5-1.1,1-1.5c0.5-0.5,1.3-0.9,2.2-1.3c1-0.4,2.3-0.7,3.9-0.8c1.7-0.2,3.3-0.1,4.8,0.1c1.5,0.3,2.9,0.6,4.1,1
						c1.2,0.4,2.2,0.7,3,1.1c1.2,0.5,2.1,0.7,2.8,0.6c0.6-0.1,1.2-0.3,1.6-0.6c0.6-0.5,0.9-1.2,1-1.7c0.2-0.6,0.2-1.2,0.2-2.1
						c0-0.8-0.1-1.7-0.2-2.7c-0.1-0.8-0.2-1.5-0.3-2.1c-0.1-0.7-0.2-1.3-0.4-1.7c-0.2-0.6-0.4-1.1-0.7-1.5c-0.3-0.4-0.7-0.8-1.1-1.2
						c-0.5-0.4-1.2-0.8-2.2-1.1c-0.8-0.3-1.7-0.6-2.7-0.8c-1-0.3-2.1-0.5-3.2-0.6c-0.4-0.1-0.9-0.1-1.3-0.2l0.1-7.7
						c0-0.1,0-0.1,0-0.2c-0.1-0.5-0.2-1.1-0.4-1.6c-0.2-0.5-0.7-1.2-1.8-1.6c-0.6-0.2-1.3-0.4-2.2-0.4c-0.8,0-1.7,0-2.9,0.1
						c-0.9,0.1-1.7,0.2-2.3,0.3c-0.7,0.2-1.3,0.4-1.8,0.7c-0.6,0.4-1.1,0.8-1.3,1.3c-0.2,0.4-0.4,0.9-0.4,1.5l-0.1,8.6
						c-2.4,0.6-4.6,1.4-6.6,2.5c-2.4,1.3-4.4,2.8-6,4.7c-1.6,1.9-2.8,4-3.5,6.4c-0.7,2.3-0.9,4.9-0.7,7.6c0.3,3,1,5.5,2.1,7.6
						c1.1,2.1,2.5,3.8,4.2,5.2c1.6,1.3,3.4,2.5,5.4,3.3c1.9,0.8,3.8,1.5,5.7,2c1.9,0.5,3.7,1,5.5,1.5c1.7,0.4,3.2,1,4.5,1.6
						c1.2,0.6,2.2,1.2,2.9,2c0.6,0.7,1,1.5,1.1,2.7c0.2,1.8-0.4,3.2-1.7,4.5c-1.4,1.3-3.9,2.2-7.4,2.5c-2.3,0.2-4.4,0.2-6.1-0.1
						c-1.8-0.3-3.3-0.7-4.5-1.1c-1.3-0.5-2.3-0.9-3.2-1.3c-1.1-0.5-1.9-0.8-2.7-0.8c-0.1,0-0.2,0-0.3,0c-0.7,0.1-1.3,0.3-1.8,0.7
						c-0.6,0.4-1,1-1.2,1.8c-0.2,0.6-0.3,1.4-0.3,2.3c0,0.8,0.1,1.7,0.2,3c0.1,1.6,0.4,2.8,0.6,3.7c0.3,1.1,0.9,1.9,1.6,2.5
						c0.6,0.5,1.3,0.9,2.3,1.3c0.9,0.4,1.9,0.7,3,1c1.1,0.3,2.4,0.6,3.7,0.8c0.8,0.1,1.6,0.2,2.5,0.3l-0.1,8.3
						c-0.1,0.7,0.1,1.4,0.4,1.9c0.2,0.5,0.7,1.2,1.8,1.6c0.6,0.2,1.3,0.4,2.1,0.4c0.2,0,0.5,0,0.8,0c0.6,0,1.3,0,2.1-0.1
						c0.9-0.1,1.7-0.2,2.3-0.4c0.7-0.2,1.2-0.4,1.7-0.6c0.6-0.4,1.1-0.8,1.4-1.4c0.2-0.4,0.3-0.9,0.3-1.5l0.1-9.2
						c2.7-0.6,5.2-1.4,7.5-2.5c2.7-1.3,5-3,6.9-5c1.9-2,3.3-4.4,4.2-7c0.9-2.6,1.2-5.5,0.9-8.6
						C933.7,1171.2,933,1168.7,931.9,1166.6z"/>
				</g>
			</g>
			<g>
				<path fill="#2D9642" d="M1530.3,1212.7l358.4-244.1l-122.2-179.4l-358.4,244.1L1530.3,1212.7z M1450.2,1069.3
					c-0.5-0.7-0.3-1.7,0.4-2.2c17.2-11.7,21.7-35.2,9.9-52.4c-0.5-0.7-0.3-1.7,0.4-2.2l266.9-181.8c0.7-0.5,1.7-0.3,2.2,0.4
					c11.7,17.2,35.2,21.7,52.4,9.9c0.7-0.5,1.7-0.3,2.2,0.4l61.9,90.9c0.5,0.7,0.3,1.7-0.4,2.2c-17.2,11.7-21.7,35.2-9.9,52.4
					c0.5,0.7,0.3,1.7-0.4,2.2L1568.9,1171c-0.7,0.5-1.7,0.3-2.2-0.4c-11.7-17.2-35.2-21.7-52.4-9.9c-0.7,0.5-1.7,0.3-2.2-0.4
					L1450.2,1069.3z"/>
				<path fill="#70BF6C" d="M1568.4,1167.6l264.4-180.1c-11.3-18-6.8-41.9,10.3-54.5l-60.2-88.4c-18,11.3-41.9,6.8-54.5-10.3
					L1464,1014.3c11.3,18,6.8,41.9-10.3,54.5l60.2,88.4C1531.9,1145.9,1555.8,1150.5,1568.4,1167.6z M1765.3,894.7
					c10-6.8,23.7-4.2,30.5,5.8c6.8,10,4.2,23.7-5.8,30.5c-10,6.8-23.7,4.2-30.5-5.8S1755.3,901.5,1765.3,894.7z M1606.1,943.5
					c0.7-0.5,1.4-1.1,2.1-1.6c23.1-15.7,58.8-4,81.4,26.7c23.3,31.7,23.8,72,1.1,89.8c-0.7,0.5-1.4,1.1-2.1,1.6l0,0
					c-23.1,15.7-58.8,4-81.4-26.7C1583.9,1001.6,1583.4,961.3,1606.1,943.5z M1500.9,1101.4c-6.8-10-4.2-23.7,5.8-30.5
					c10-6.8,23.7-4.2,30.5,5.8c6.8,10,4.2,23.7-5.8,30.5C1521.4,1114,1507.7,1111.4,1500.9,1101.4z"/>
				<path fill="#2D9642" d="M1788.3,928.5c8.6-5.9,10.8-17.6,5-26.2c-5.9-8.6-17.6-10.8-26.2-5s-10.8,17.6-5,26.2
					C1767.9,932.1,1779.7,934.3,1788.3,928.5z"/>
				<path fill="#2D9642" d="M1529.7,1104.6c8.6-5.9,10.8-17.6,5-26.2c-5.9-8.6-17.6-10.8-26.2-5s-10.8,17.6-5,26.2
					C1509.3,1108.2,1521.1,1110.5,1529.7,1104.6z"/>
				<path fill="#04192D" d="M1629.1,1005.2c1.6,0.9,3.3,1.5,5,1.8c1.7,0.2,3.5,0.2,5.3,0c1.8-0.3,3.6-0.7,5.4-1.2
					c1.8-0.5,3.5-1,5.3-1.6c1.9-0.6,3.6-1,5.2-1.2c1.7-0.2,3.3-0.1,4.8,0.2c1.6,0.4,3,1.4,4.2,2.9c1.7,2.3,2.2,4.8,1.5,7.6
					c-0.7,2.6-2.8,5.2-6.1,7.7c-2.1,1.6-4.1,2.7-6,3.5c-1.8,0.7-3.5,1.3-4.9,1.6c-1.6,0.3-2.8,0.5-3.7,0.6c-0.8,0.1-1.1,0.2-1.2,0.2
					c0,0,0,0.1,0,0.1c0,0.1,0.1,0.5,0.5,1.1c0.4,0.6,0.9,1.3,1.5,2.2c1,1.3,1.6,1.9,1.9,2.2c0.3,0.3,0.6,0.5,0.9,0.5
					c0.2,0,0.7,0,1.6-0.1c0.8-0.1,1.7-0.3,2.6-0.6c1-0.3,2.1-0.7,3.2-1.2c1.2-0.5,2.3-1.1,3.5-1.7c0.7-0.4,1.6-0.2,2.1,0.6l5.2,8.6
					c0,0.1,0.1,0.1,0.1,0.1c0.2,0,0.5-0.1,1-0.4c0.5-0.3,1.2-0.7,1.9-1.3c0.6-0.4,1.1-0.8,1.4-1.2c0.3-0.3,0.5-0.5,0.6-0.7l-5.5-9
					c-0.4-0.6-0.3-1.5,0.3-2c2.3-2,4.1-4.2,5.5-6.4c1.4-2.2,2.3-4.4,2.7-6.7c0.4-2.2,0.4-4.4-0.1-6.6c-0.5-2.2-1.6-4.4-3.1-6.4
					c-1.5-1.9-3-3.4-4.6-4.3c-1.6-0.9-3.3-1.5-5-1.7c-1.7-0.2-3.5-0.2-5.3,0.1c-1.9,0.3-3.7,0.7-5.5,1.2c-1.8,0.5-3.6,1.1-5.4,1.6
					c-1.8,0.6-3.6,1-5.2,1.2c-1.7,0.3-3.4,0.2-4.9-0.2c-1.6-0.4-3-1.4-4.2-2.9c-0.7-1-1.2-2-1.5-3.1c-0.3-1.1-0.2-2.3,0.1-3.5
					c0.3-1.1,0.9-2.3,1.8-3.4c0.9-1.1,2.1-2.2,3.5-3.3c1.6-1.2,3.2-2.1,4.8-2.8c1.6-0.6,3-1.1,4.3-1.5c1.2-0.3,2.4-0.6,3.4-0.8
					c0.4-0.1,0.7-0.1,0.9-0.2c-0.1-0.2-0.2-0.4-0.4-0.7c-0.4-0.6-0.8-1.2-1.4-2c-0.4-0.6-0.8-1.1-1.2-1.5c-0.3-0.4-0.6-0.7-0.9-0.9
					c-0.3-0.2-0.4-0.3-0.5-0.4c-0.2-0.1-0.4-0.1-0.6-0.2c-0.1,0-0.4,0-1.3,0.1c-0.7,0.2-1.5,0.4-2.4,0.6c-0.8,0.3-1.7,0.6-2.6,1
					c-1,0.4-1.8,0.9-2.5,1.3c-0.7,0.4-1.6,0.2-2.1-0.6l-4.8-8c-0.1-0.1-0.1-0.1-0.2-0.2c-0.2,0-0.5,0.2-1,0.4
					c-0.5,0.3-1.2,0.7-1.9,1.3c-0.7,0.5-1.2,0.9-1.5,1.2c-0.4,0.4-0.5,0.5-0.5,0.6c0,0,0,0,0,0l5.2,8.4c0.4,0.6,0.3,1.4-0.2,1.9
					c-2,1.9-3.6,3.8-4.7,5.8c-1.1,1.9-1.8,3.9-2.1,5.8c-0.3,1.9-0.2,3.8,0.3,5.8c0.5,1.9,1.4,3.8,2.8,5.6
					C1625.9,1002.8,1627.5,1004.2,1629.1,1005.2z"/>
				<g>
					<path fill="#04192D" d="M1766,785.8l-360.9,245.8c-0.7,0.5-0.9,1.4-0.4,2.2l123.9,182c0.5,0.7,1.4,0.9,2.2,0.4l360.9-245.8
						c0.7-0.5,0.9-1.4,0.4-2.2l-123.9-182C1767.7,785.5,1766.7,785.3,1766,785.8z M1888.7,968.6l-358.4,244.1l-122.2-179.4
						l358.4-244.1L1888.7,968.6z"/>
					<path fill="#04192D" d="M1514.3,1160.7c17.2-11.7,40.7-7.3,52.4,9.9c0.5,0.7,1.4,0.9,2.2,0.4l266.9-181.8
						c0.7-0.5,0.9-1.4,0.4-2.2c-11.7-17.2-7.3-40.7,9.9-52.4c0.7-0.5,0.9-1.4,0.4-2.2l-61.9-90.9c-0.5-0.7-1.4-0.9-2.2-0.4
						c-17.2,11.7-40.7,7.2-52.4-9.9c-0.5-0.7-1.4-0.9-2.2-0.4L1461,1012.6c-0.7,0.5-0.9,1.4-0.4,2.2c11.7,17.2,7.3,40.7-9.9,52.4
						c-0.7,0.5-0.9,1.4-0.4,2.2l61.9,90.9C1512.6,1161,1513.6,1161.2,1514.3,1160.7z M1453.7,1068.9c17.1-12.6,21.7-36.5,10.3-54.5
						l264.4-180.1c12.6,17.1,36.5,21.7,54.5,10.3l60.2,88.4c-17.1,12.6-21.7,36.5-10.3,54.5l-264.4,180.1
						c-12.6-17.1-36.5-21.7-54.5-10.3L1453.7,1068.9z"/>
					<path fill="#04192D" d="M1790.1,931c10-6.8,12.6-20.5,5.8-30.5c-6.8-10-20.5-12.6-30.5-5.8c-10,6.8-12.6,20.5-5.8,30.5
						S1780,937.9,1790.1,931z M1767.1,897.3c8.6-5.9,20.4-3.6,26.2,5c5.9,8.6,3.6,20.4-5,26.2c-8.6,5.9-20.4,3.6-26.2-5
						C1756.2,914.9,1758.5,903.1,1767.1,897.3z"/>
					<path fill="#04192D" d="M1537.3,1076.6c-6.8-10-20.5-12.6-30.5-5.8c-10,6.8-12.6,20.5-5.8,30.5c6.8,10,20.5,12.6,30.5,5.8
						C1541.5,1100.3,1544.1,1086.6,1537.3,1076.6z M1503.5,1099.6c-5.9-8.6-3.6-20.4,5-26.2s20.4-3.6,26.2,5
						c5.9,8.6,3.6,20.4-5,26.2C1521.1,1110.5,1509.3,1108.2,1503.5,1099.6z"/>
					<path fill="#2D9642" d="M1689.6,968.6c-22.6-30.7-58.3-42.4-81.4-26.7c-0.7,0.5-1.4,1-2.1,1.6c-22.7,17.8-22.2,58.1,1.1,89.8
						c22.6,30.7,58.3,42.4,81.4,26.7l0,0c0.7-0.5,1.4-1,2.1-1.6C1713.4,1040.6,1712.9,1000.3,1689.6,968.6z M1666.3,1026.7l5.5,9
						c-0.1,0.1-0.3,0.4-0.6,0.7c-0.3,0.3-0.8,0.7-1.4,1.2c-0.8,0.6-1.4,1-1.9,1.3c-0.5,0.3-0.8,0.4-1,0.4c0,0,0-0.1-0.1-0.1
						l-5.2-8.6c-0.4-0.7-1.4-1-2.1-0.6c-1.2,0.7-2.4,1.2-3.5,1.7c-1.1,0.5-2.2,0.9-3.2,1.2c-0.9,0.3-1.8,0.5-2.6,0.6
						c-0.8,0.1-1.3,0.1-1.6,0.1c-0.2,0-0.5-0.2-0.9-0.5c-0.3-0.3-0.9-0.9-1.9-2.2c-0.6-0.8-1.2-1.6-1.5-2.2c-0.4-0.6-0.5-1-0.5-1.1
						c0,0,0-0.1,0-0.1c0.1,0,0.4-0.2,1.2-0.2c0.9-0.1,2.1-0.3,3.7-0.6c1.5-0.3,3.1-0.9,4.9-1.6c1.9-0.8,3.9-1.9,6-3.5
						c3.3-2.5,5.4-5.1,6.1-7.7c0.8-2.8,0.3-5.3-1.5-7.6c-1.2-1.5-2.6-2.5-4.2-2.9c-1.5-0.4-3.1-0.5-4.8-0.2
						c-1.6,0.2-3.3,0.6-5.2,1.2c-1.8,0.6-3.5,1.1-5.3,1.6c-1.8,0.5-3.6,0.9-5.4,1.2c-1.8,0.3-3.5,0.3-5.3,0c-1.7-0.2-3.3-0.8-5-1.8
						c-1.6-0.9-3.2-2.4-4.7-4.4c-1.4-1.8-2.3-3.7-2.8-5.6c-0.5-1.9-0.6-3.8-0.3-5.8c0.3-1.9,1-3.9,2.1-5.8c1.2-2,2.7-3.9,4.7-5.8
						c0.5-0.5,0.6-1.3,0.2-1.9l-5.2-8.4c0,0,0,0,0,0c0-0.1,0.1-0.2,0.5-0.6c0.3-0.3,0.8-0.7,1.5-1.2c0.7-0.6,1.4-1,1.9-1.3
						c0.5-0.3,0.8-0.4,1-0.4c0.1,0.1,0.1,0.1,0.2,0.2l4.8,8c0.4,0.7,1.3,1,2.1,0.6c0.7-0.4,1.6-0.8,2.5-1.3c0.9-0.4,1.8-0.8,2.6-1
						c0.8-0.3,1.6-0.5,2.4-0.6c0.9-0.2,1.2-0.1,1.3-0.1c0.2,0,0.4,0.1,0.6,0.2c0.1,0,0.2,0.1,0.5,0.4c0.3,0.2,0.5,0.5,0.9,0.9
						c0.4,0.4,0.8,0.9,1.2,1.5c0.5,0.7,1,1.4,1.4,2c0.2,0.3,0.3,0.6,0.4,0.7c-0.2,0.1-0.5,0.1-0.9,0.2c-1,0.2-2.2,0.4-3.4,0.8
						c-1.3,0.3-2.7,0.8-4.3,1.5c-1.6,0.7-3.3,1.6-4.8,2.8c-1.5,1.1-2.6,2.2-3.5,3.3c-0.9,1.2-1.5,2.3-1.8,3.4
						c-0.3,1.2-0.3,2.4-0.1,3.5c0.3,1.1,0.8,2.1,1.5,3.1c1.1,1.5,2.5,2.5,4.2,2.9c1.5,0.4,3.1,0.5,4.9,0.2c1.6-0.2,3.4-0.6,5.2-1.2
						c1.7-0.5,3.5-1.1,5.4-1.6c1.8-0.5,3.6-0.9,5.5-1.2c1.8-0.3,3.5-0.3,5.3-0.1c1.7,0.2,3.3,0.8,5,1.7c1.6,0.9,3.2,2.4,4.6,4.3
						c1.6,2.1,2.6,4.2,3.1,6.4c0.5,2.2,0.6,4.4,0.1,6.6c-0.4,2.2-1.4,4.5-2.7,6.7c-1.4,2.2-3.2,4.3-5.5,6.4
						C1666,1025.3,1665.9,1026.1,1666.3,1026.7z"/>
				</g>
			</g>
			<g>
				<path fill="#2D9642" d="M1567,1047L1677,627.6l-210-55L1357.1,992L1567,1047z M1412.5,991.5c-0.8-0.2-1.3-1.1-1.1-1.9
					c5.3-20.1-6.8-40.8-26.9-46.1c-0.8-0.2-1.3-1.1-1.1-1.9l81.9-312.4c0.2-0.8,1.1-1.3,1.9-1.1c20.1,5.3,40.8-6.8,46.1-26.9
					c0.2-0.8,1.1-1.3,1.9-1.1l106.4,27.9c0.8,0.2,1.3,1.1,1.1,1.9c-5.3,20.1,6.8,40.8,26.9,46.1c0.8,0.2,1.3,1.1,1.1,1.9
					l-81.9,312.4c-0.2,0.8-1.1,1.3-1.9,1.1c-20.1-5.3-40.8,6.8-46.1,26.9c-0.2,0.8-1.1,1.3-1.9,1.1L1412.5,991.5z"/>
				<path fill="#70BF6C" d="M1566.2,988l81.1-309.4c-20.4-6.2-32.6-27.1-28-47.9l-103.5-27.1c-6.2,20.4-27.1,32.6-47.9,28
					L1386.8,941c20.4,6.2,32.6,27.1,28,47.9l103.5,27.1C1524.4,995.7,1545.4,983.4,1566.2,988z M1535.4,652.9
					c3.1-11.7,15.1-18.8,26.8-15.7c11.7,3.1,18.8,15.1,15.7,26.8c-3.1,11.7-15.1,18.8-26.8,15.7
					C1539.4,676.7,1532.3,664.6,1535.4,652.9z M1447.4,794.3c0.2-0.9,0.4-1.7,0.6-2.6c7.1-27,41.7-41.7,78.9-33.3
					c38.4,8.6,65.2,38.7,59.8,67c-0.2,0.9-0.4,1.7-0.6,2.6l0,0c-7.1,27-41.7,41.7-78.9,33.3C1468.8,852.7,1442,822.6,1447.4,794.3z
					 M1471.8,982.4c-11.7-3.1-18.8-15.1-15.7-26.8c3.1-11.7,15.1-18.8,26.8-15.7c11.7,3.1,18.8,15.1,15.7,26.8
					C1495.5,978.4,1483.5,985.5,1471.8,982.4z"/>
				<path fill="#2D9642" d="M1574.9,663.3c2.6-10.1-3.4-20.4-13.5-23c-10.1-2.6-20.4,3.4-23,13.5c-2.6,10.1,3.4,20.4,13.5,23
					S1572.3,673.3,1574.9,663.3z"/>
				<path fill="#2D9642" d="M1495.6,965.9c2.6-10.1-3.4-20.4-13.5-23c-10.1-2.6-20.4,3.4-23,13.5c-2.6,10.1,3.4,20.4,13.5,23
					C1482.6,982.1,1493,976,1495.6,965.9z"/>
				<path fill="#04192D" d="M1505.3,825.7c1.9-0.4,3.5-1,4.9-1.9c1.5-1,2.8-2.1,3.9-3.5c1.2-1.4,2.3-2.9,3.3-4.4c1-1.5,2-3,3-4.7
					c1-1.7,2.1-3.1,3.1-4.3c1.2-1.3,2.4-2.3,3.8-3c1.5-0.7,3.2-0.9,5.1-0.5c2.8,0.6,4.9,2.2,6.1,4.8c1.2,2.4,1.3,5.7,0.5,9.8
					c-0.5,2.6-1.3,4.8-2.2,6.5c-0.9,1.7-1.8,3.2-2.7,4.4c-1,1.3-1.7,2.2-2.4,2.9c-0.5,0.6-0.7,0.9-0.7,1c0,0,0,0,0.1,0.1
					c0.1,0.1,0.4,0.3,1.1,0.5c0.7,0.2,1.5,0.4,2.6,0.6c1.6,0.3,2.5,0.4,2.9,0.4c0.4,0,0.8-0.1,1-0.2c0.2-0.1,0.6-0.4,1.1-1.1
					c0.5-0.6,1-1.3,1.6-2.2c0.6-0.9,1.1-1.9,1.6-3c0.5-1.1,1.1-2.3,1.5-3.6c0.3-0.8,1.1-1.2,1.9-1l9.6,3.1c0.1,0,0.1,0,0.2,0.1
					c0.1-0.2,0.3-0.4,0.5-0.9c0.2-0.6,0.4-1.3,0.6-2.2c0.2-0.7,0.2-1.3,0.3-1.8c0-0.4,0-0.7,0-0.9l-10.1-3.2
					c-0.7-0.2-1.2-0.9-1.1-1.7c0.4-3,0.4-5.8-0.1-8.4c-0.4-2.6-1.2-4.9-2.3-6.8c-1.1-1.9-2.6-3.6-4.4-4.9c-1.8-1.3-4-2.2-6.6-2.8
					c-2.4-0.5-4.5-0.6-6.3-0.2c-1.8,0.4-3.5,1-4.9,2c-1.5,1-2.8,2.1-3.9,3.5c-1.2,1.5-2.3,3-3.3,4.5c-1,1.6-2,3.2-3,4.7
					c-1,1.6-2.1,3.1-3.1,4.3c-1.1,1.3-2.4,2.3-3.8,3c-1.5,0.7-3.2,0.9-5.1,0.5c-1.2-0.3-2.2-0.7-3.1-1.3c-0.9-0.7-1.7-1.6-2.2-2.6
					c-0.5-1-0.8-2.3-0.9-3.8c-0.1-1.4,0.1-3,0.5-4.8c0.4-1.9,1-3.7,1.8-5.3c0.8-1.5,1.5-2.8,2.3-3.9c0.7-1.1,1.4-2,2.1-2.8
					c0.3-0.3,0.4-0.6,0.5-0.7c-0.2-0.1-0.4-0.2-0.8-0.3c-0.6-0.2-1.5-0.4-2.3-0.6c-0.7-0.2-1.3-0.3-1.9-0.3
					c-0.5-0.1-0.9-0.1-1.3-0.1c-0.4,0-0.5,0-0.6,0.1c-0.2,0.1-0.4,0.1-0.5,0.3c0,0-0.3,0.2-0.9,0.9c-0.5,0.6-0.9,1.3-1.4,2
					c-0.5,0.7-0.9,1.6-1.3,2.5c-0.4,1-0.8,1.8-1.1,2.6c-0.3,0.8-1.1,1.2-1.9,0.9l-8.8-2.8c-0.1,0-0.2,0-0.3,0
					c-0.1,0.2-0.3,0.4-0.5,1c-0.2,0.6-0.4,1.3-0.6,2.2c-0.2,0.8-0.3,1.4-0.3,1.9c0,0.5,0,0.7,0,0.8c0,0,0,0,0,0l9.4,3
					c0.7,0.2,1.1,0.9,1.1,1.6c-0.3,2.7-0.2,5.2,0.3,7.5c0.4,2.2,1.2,4.1,2.2,5.8c1.1,1.7,2.4,3,4,4.1c1.7,1.1,3.6,1.9,5.8,2.4
					C1501.3,825.9,1503.4,826,1505.3,825.7z"/>
				<g>
					<path fill="#04192D" d="M1464.4,570.3l-110.7,422.4c-0.2,0.8,0.3,1.7,1.1,1.9l213,55.8c0.8,0.2,1.7-0.3,1.9-1.1l110.7-422.4
						c0.2-0.8-0.3-1.7-1.1-1.9l-213-55.8C1465.4,569,1464.6,569.5,1464.4,570.3z M1677,627.6L1567,1047l-210-55L1467,572.6
						L1677,627.6z"/>
					<path fill="#04192D" d="M1520.8,1018.3c5.3-20.1,25.9-32.2,46.1-26.9c0.8,0.2,1.7-0.3,1.9-1.1l81.9-312.4
						c0.2-0.8-0.3-1.7-1.1-1.9c-20.1-5.3-32.2-25.9-26.9-46.1c0.2-0.8-0.3-1.7-1.1-1.9l-106.4-27.9c-0.8-0.2-1.7,0.3-1.9,1.1
						c-5.3,20.1-25.9,32.2-46.1,26.9c-0.8-0.2-1.7,0.3-1.9,1.1l-81.9,312.4c-0.2,0.8,0.3,1.7,1.1,1.9c20.1,5.3,32.2,25.9,26.9,46.1
						c-0.2,0.8,0.3,1.7,1.1,1.9l106.4,27.9C1519.8,1019.7,1520.6,1019.2,1520.8,1018.3z M1414.8,988.9c4.6-20.8-7.6-41.8-28-47.9
						l81.1-309.4c20.8,4.6,41.8-7.6,47.9-28l103.5,27.1c-4.6,20.8,7.6,41.8,28,47.9L1566.2,988c-20.8-4.6-41.8,7.6-47.9,28
						L1414.8,988.9z"/>
					<path fill="#04192D" d="M1577.9,664.1c3.1-11.7-4-23.8-15.7-26.8c-11.7-3.1-23.8,4-26.8,15.7c-3.1,11.7,4,23.8,15.7,26.8
						C1562.8,682.8,1574.9,675.8,1577.9,664.1z M1538.4,653.7c2.6-10.1,13-16.1,23-13.5c10.1,2.6,16.1,13,13.5,23
						c-2.6,10.1-13,16.1-23,13.5S1535.8,663.8,1538.4,653.7z"/>
					<path fill="#04192D" d="M1482.9,939.9c-11.7-3.1-23.8,4-26.8,15.7c-3.1,11.7,4,23.8,15.7,26.8c11.7,3.1,23.8-4,26.8-15.7
						C1501.7,955,1494.6,943,1482.9,939.9z M1472.6,979.4c-10.1-2.6-16.1-13-13.5-23c2.6-10.1,13-16.1,23-13.5
						c10.1,2.6,16.1,13,13.5,23C1493,976,1482.6,982.1,1472.6,979.4z"/>
					<path fill="#2D9642" d="M1526.9,758.3c-37.2-8.3-71.8,6.3-78.9,33.3c-0.2,0.9-0.4,1.7-0.6,2.6c-5.4,28.4,21.4,58.4,59.8,67
						c37.2,8.3,71.8-6.3,78.9-33.3l0,0c0.2-0.9,0.4-1.7,0.6-2.6C1592.1,797,1565.2,766.9,1526.9,758.3z M1547.4,817.5l10.1,3.2
						c0,0.2,0,0.4,0,0.9c0,0.5-0.1,1.1-0.3,1.8c-0.2,0.9-0.4,1.7-0.6,2.2c-0.2,0.5-0.3,0.8-0.5,0.9c0,0-0.1,0-0.2-0.1l-9.6-3.1
						c-0.8-0.3-1.7,0.2-1.9,1c-0.5,1.3-1,2.5-1.5,3.6c-0.5,1.1-1.1,2.1-1.6,3c-0.5,0.8-1,1.6-1.6,2.2c-0.5,0.6-0.9,1-1.1,1.1
						c-0.2,0.1-0.5,0.2-1,0.2c-0.4,0-1.3-0.1-2.9-0.4c-1-0.2-1.9-0.4-2.6-0.6c-0.7-0.2-1-0.4-1.1-0.5c0,0-0.1,0-0.1-0.1
						c0-0.1,0.2-0.4,0.7-1c0.6-0.7,1.4-1.6,2.4-2.9c0.9-1.2,1.8-2.7,2.7-4.4c0.9-1.8,1.6-4,2.2-6.5c0.9-4.1,0.7-7.4-0.5-9.8
						c-1.2-2.6-3.3-4.2-6.1-4.8c-1.9-0.4-3.6-0.2-5.1,0.5c-1.3,0.7-2.6,1.7-3.8,3c-1.1,1.2-2.1,2.6-3.1,4.3c-1,1.6-2,3.1-3,4.7
						c-1,1.6-2.1,3-3.3,4.4c-1.1,1.3-2.5,2.5-3.9,3.5c-1.4,0.9-3.1,1.6-4.9,1.9c-1.8,0.4-4,0.3-6.5-0.2c-2.2-0.5-4.1-1.2-5.8-2.4
						c-1.7-1.1-3-2.5-4-4.1c-1.1-1.6-1.8-3.6-2.2-5.8c-0.4-2.2-0.5-4.8-0.3-7.5c0.1-0.7-0.4-1.4-1.1-1.6l-9.4-3c0,0,0,0,0,0
						c0-0.1-0.1-0.3,0-0.8c0-0.4,0.1-1,0.3-1.9c0.2-0.9,0.4-1.7,0.6-2.2c0.2-0.5,0.4-0.8,0.5-1c0.1,0,0.2,0,0.3,0l8.8,2.8
						c0.8,0.3,1.6-0.2,1.9-0.9c0.3-0.8,0.7-1.7,1.1-2.6c0.4-0.9,0.9-1.7,1.3-2.5c0.4-0.7,0.9-1.4,1.4-2c0.6-0.7,0.8-0.9,0.9-0.9
						c0.2-0.1,0.4-0.2,0.5-0.3c0.1,0,0.3-0.1,0.6-0.1c0.3,0,0.8,0,1.3,0.1c0.5,0.1,1.2,0.2,1.9,0.3c0.9,0.2,1.7,0.4,2.3,0.6
						c0.4,0.1,0.6,0.2,0.8,0.3c-0.1,0.2-0.3,0.4-0.5,0.7c-0.6,0.8-1.3,1.7-2.1,2.8c-0.8,1.1-1.5,2.4-2.3,3.9
						c-0.8,1.6-1.4,3.4-1.8,5.3c-0.4,1.8-0.5,3.4-0.5,4.8c0.1,1.5,0.4,2.7,0.9,3.8c0.5,1.1,1.3,2,2.2,2.6c0.9,0.6,1.9,1.1,3.1,1.3
						c1.9,0.4,3.6,0.2,5.1-0.5c1.4-0.7,2.7-1.7,3.8-3c1.1-1.2,2.1-2.7,3.1-4.3c1-1.6,2-3.1,3-4.7c1-1.5,2.1-3.1,3.3-4.5
						c1.1-1.4,2.4-2.6,3.9-3.5c1.4-0.9,3-1.6,4.9-2c1.8-0.4,3.9-0.3,6.3,0.2c2.5,0.5,4.8,1.5,6.6,2.8c1.8,1.3,3.3,3,4.4,4.9
						c1.1,2,1.9,4.3,2.3,6.8c0.4,2.6,0.4,5.4,0.1,8.4C1546.3,816.6,1546.7,817.3,1547.4,817.5z"/>
				</g>
			</g>
			<g>
				<path fill="#FFB019" d="M1478.6,894.5c-4.4-48.3-44.3-84.8-92.8-84.8c-2.9,0-5.8,0.1-8.6,0.4c-24.8,2.3-47.3,14.1-63.2,33.2
					c-15.9,19.2-23.5,43.4-21.2,68.2c4.4,48.3,44.3,84.8,92.8,84.8c2.9,0,5.8-0.1,8.6-0.4C1445.4,991.2,1483.3,945.7,1478.6,894.5z
					 M1392.1,973.2c-2.2,0.2-4.3,0.3-6.5,0.3c-17.5,0-34.3-6.5-47.3-18.3c-13.1-11.9-21.2-28.1-22.8-45.7c-1.7-18.7,4-37,16-51.5
					c12-14.5,29-23.4,47.7-25.1c2.2-0.2,4.3-0.3,6.5-0.3c17.5,0,34.3,6.5,47.3,18.3c13.1,11.9,21.2,28.1,22.8,45.7
					c1.7,18.7-4,37-16,51.5C1427.7,962.5,1410.8,971.4,1392.1,973.2z"/>
				<path fill="#FFB019" d="M1428.3,938.5c9.5-11.4,14-25.8,12.6-40.5c-2.6-28.3-26.8-50.4-55.2-50.4c-1.7,0-3.4,0.1-5.1,0.2
					c-14.7,1.4-28.1,8.4-37.6,19.8c-9.5,11.4-14,25.8-12.6,40.5c2.6,28.3,26.8,50.4,55.2,50.4c0,0,0,0,0,0c1.7,0,3.4-0.1,5.1-0.2
					C1405.5,956.9,1418.8,949.9,1428.3,938.5z M1406.9,919.8c-0.8,2.3-2,4.4-3.7,6.3c-1.7,1.8-3.7,3.3-6.2,4.5c-2,1-4.3,1.7-6.7,2.3
					l-0.1,8.3c0,0.5-0.1,0.9-0.3,1.3c-0.3,0.5-0.7,1-1.2,1.3c-0.4,0.2-0.9,0.4-1.6,0.6c-0.6,0.1-1.2,0.2-2.1,0.3
					c-0.7,0.1-1.3,0.1-1.9,0.1c-0.2,0-0.5,0-0.7,0c-0.8,0-1.4-0.2-1.9-0.4c-0.9-0.4-1.4-1-1.6-1.4c-0.3-0.5-0.4-1.1-0.3-1.7l0.1-7.4
					c-0.8-0.1-1.5-0.2-2.2-0.3c-1.2-0.2-2.4-0.4-3.4-0.7c-1-0.3-1.9-0.6-2.7-0.9c-0.9-0.4-1.5-0.7-2-1.2c-0.6-0.5-1.1-1.3-1.4-2.2
					c-0.2-0.8-0.4-1.9-0.6-3.3c-0.1-1.1-0.1-2-0.2-2.7c0-0.8,0.1-1.5,0.3-2.1c0.2-0.7,0.6-1.2,1.1-1.6c0.5-0.3,1-0.5,1.6-0.6
					c0.1,0,0.2,0,0.3,0c0.7,0,1.4,0.2,2.4,0.7c0.7,0.4,1.7,0.7,2.8,1.1c1.1,0.4,2.5,0.7,4.1,1c1.5,0.3,3.4,0.3,5.4,0.1
					c3.1-0.3,5.3-1,6.6-2.2c1.2-1.1,1.7-2.4,1.5-4c-0.1-1-0.4-1.8-1-2.4c-0.7-0.7-1.5-1.3-2.6-1.8c-1.2-0.5-2.5-1-4-1.4
					c-1.6-0.4-3.2-0.9-4.9-1.3c-1.7-0.5-3.4-1.1-5.1-1.8c-1.7-0.7-3.4-1.7-4.8-2.9c-1.5-1.2-2.7-2.8-3.7-4.7c-1-1.9-1.6-4.2-1.9-6.8
					c-0.2-2.4,0-4.7,0.6-6.8c0.6-2.1,1.7-4,3.1-5.7c1.4-1.6,3.2-3.1,5.3-4.2c1.7-0.9,3.7-1.7,5.9-2.2l0.1-7.7c0-0.5,0.1-1,0.3-1.4
					c0.2-0.4,0.6-0.8,1.2-1.2c0.4-0.3,0.9-0.4,1.6-0.6c0.6-0.1,1.2-0.2,2.1-0.3c1-0.1,1.9-0.1,2.6-0.1c0.8,0,1.4,0.2,1.9,0.4
					c0.9,0.4,1.4,1,1.6,1.5c0.2,0.5,0.3,0.9,0.4,1.4c0,0.1,0,0.1,0,0.2l-0.1,6.9c0.4,0,0.8,0.1,1.2,0.1c1,0.1,2,0.3,2.8,0.5
					c0.9,0.2,1.7,0.5,2.4,0.7c0.9,0.3,1.5,0.6,1.9,1c0.4,0.3,0.7,0.7,1,1.1c0.2,0.4,0.4,0.8,0.6,1.3c0.1,0.4,0.2,0.9,0.3,1.6
					c0.1,0.5,0.2,1.2,0.2,1.9c0.1,0.9,0.1,1.7,0.1,2.4c0,0.8,0,1.4-0.2,1.9c-0.1,0.4-0.4,1.1-0.9,1.5c-0.4,0.3-0.9,0.5-1.4,0.6
					c-0.6,0.1-1.5-0.1-2.5-0.5c-0.7-0.3-1.6-0.6-2.7-0.9c-1.1-0.3-2.3-0.6-3.7-0.9c-1.3-0.2-2.7-0.3-4.3-0.1
					c-1.4,0.1-2.6,0.4-3.5,0.7c-0.9,0.3-1.5,0.7-2,1.1c-0.4,0.4-0.7,0.9-0.9,1.4c-0.2,0.6-0.2,1.2-0.2,1.8c0.1,1,0.4,1.8,1,2.4
					c0.7,0.7,1.5,1.3,2.6,1.8c1.2,0.5,2.6,1,4.1,1.4c1.6,0.4,3.3,0.9,5,1.4c1.8,0.5,3.5,1.1,5.2,1.8c1.8,0.7,3.4,1.7,4.9,2.9
					c1.5,1.2,2.8,2.8,3.7,4.6c1,1.8,1.6,4.1,1.9,6.7C1408,914.8,1407.7,917.4,1406.9,919.8z"/>
				<path fill="#FFD91E" d="M1437.2,945.9c11.5-13.8,16.9-31.2,15.3-49c-3.1-34.2-32.5-61-66.8-61c-2,0-4.1,0.1-6.2,0.3
					c-17.8,1.6-33.9,10.1-45.4,23.9c-11.5,13.8-16.9,31.2-15.3,49c3.1,34.2,32.5,61,66.8,61c2,0,4.1-0.1,6.2-0.3
					C1409.6,968.2,1425.7,959.7,1437.2,945.9z M1391,961.6c-1.8,0.2-3.6,0.2-5.4,0.2c0,0,0,0,0,0c-14.6,0-28.6-5.4-39.5-15.3
					c-10.9-9.9-17.7-23.5-19.1-38.2c-1.4-15.6,3.3-30.9,13.4-43c10.1-12.1,24.2-19.5,39.8-21c1.8-0.2,3.6-0.2,5.4-0.2
					c14.6,0,28.6,5.4,39.5,15.3c10.9,9.9,17.7,23.5,19.1,38.2c1.4,15.6-3.3,30.9-13.4,43C1420.8,952.7,1406.7,960.2,1391,961.6z"/>
				<g>
					<path fill="#04192D" d="M1481.9,894.2c-2.2-24.2-13.3-46.4-31.3-62.7c-17.8-16.2-40.9-25.1-64.9-25.1c-3,0-6,0.1-8.9,0.4
						c-25.7,2.4-49,14.6-65.5,34.4c-16.5,19.8-24.3,44.9-22,70.7c2.2,24.2,13.3,46.4,31.3,62.7c17.8,16.2,40.9,25.1,64.9,25.1
						c3,0,6-0.1,8.9-0.4C1447.6,994.4,1486.8,947.3,1481.9,894.2z M1394.2,995.9c-2.9,0.3-5.8,0.4-8.6,0.4
						c-48.5,0-88.4-36.5-92.8-84.8c-2.3-24.8,5.3-49,21.2-68.2c15.9-19.2,38.4-31,63.2-33.2c2.9-0.3,5.8-0.4,8.6-0.4
						c48.5,0,88.4,36.5,92.8,84.8C1483.3,945.7,1445.4,991.2,1394.2,995.9z"/>
					<path fill="#04192D" d="M1433,850.9c-13-11.8-29.8-18.3-47.3-18.3c-2.1,0-4.3,0.1-6.5,0.3c-18.7,1.7-35.6,10.6-47.7,25.1
						c-12,14.5-17.7,32.8-16,51.5c1.6,17.6,9.7,33.8,22.8,45.7c13,11.8,29.8,18.3,47.3,18.3c2.1,0,4.3-0.1,6.5-0.3
						c18.7-1.7,35.6-10.6,47.7-25.1c12-14.5,17.7-32.8,16-51.5C1454.2,879,1446.1,862.8,1433,850.9z M1437.2,945.9
						c-11.5,13.8-27.6,22.3-45.4,23.9c-2.1,0.2-4.1,0.3-6.2,0.3c-34.3,0-63.6-26.8-66.8-61c-1.6-17.8,3.8-35.2,15.3-49
						c11.5-13.8,27.6-22.3,45.4-23.9c2.1-0.2,4.1-0.3,6.2-0.3c34.3,0,63.6,26.8,66.8,61C1454.1,914.7,1448.7,932.1,1437.2,945.9z"/>
					<path fill="#04192D" d="M1425.2,859.5c-10.9-9.9-24.9-15.3-39.5-15.3c-1.8,0-3.6,0.1-5.4,0.2c-15.6,1.4-29.8,8.9-39.8,21
						c-10.1,12.1-14.8,27.4-13.4,43c1.3,14.7,8.1,28.2,19.1,38.2c10.9,9.9,24.9,15.3,39.5,15.3c0,0,0,0,0,0c1.8,0,3.6-0.1,5.4-0.2
						c15.6-1.4,29.8-8.9,39.8-21c10.1-12.1,14.8-27.4,13.4-43C1442.9,882.9,1436.1,869.4,1425.2,859.5z M1428.3,938.5
						c-9.5,11.4-22.8,18.4-37.6,19.8c-1.7,0.2-3.4,0.2-5.1,0.2c0,0,0,0,0,0c-28.4,0-52.6-22.1-55.2-50.4
						c-1.4-14.7,3.1-29.1,12.6-40.5c9.5-11.4,22.8-18.4,37.6-19.8c1.7-0.2,3.4-0.2,5.1-0.2c28.4,0,52.6,22.1,55.2,50.4
						C1442.3,912.7,1437.8,927.1,1428.3,938.5z"/>
					<path fill="#04192D" d="M1407.7,912.1c-0.2-2.6-0.9-4.9-1.9-6.7c-1-1.8-2.3-3.4-3.7-4.6c-1.5-1.2-3.1-2.2-4.9-2.9
						c-1.7-0.7-3.4-1.3-5.2-1.8c-1.7-0.5-3.3-0.9-5-1.4c-1.5-0.4-2.9-0.9-4.1-1.4c-1.1-0.5-2-1.1-2.6-1.8c-0.6-0.6-0.9-1.4-1-2.4
						c-0.1-0.7,0-1.3,0.2-1.8c0.2-0.5,0.5-1,0.9-1.4c0.5-0.4,1.1-0.8,2-1.1c0.9-0.3,2.1-0.6,3.5-0.7c1.5-0.1,3-0.1,4.3,0.1
						c1.4,0.2,2.6,0.5,3.7,0.9c1.1,0.3,2,0.6,2.7,0.9c1.1,0.4,1.9,0.6,2.5,0.5c0.5,0,1-0.3,1.4-0.6c0.5-0.4,0.8-1.1,0.9-1.5
						c0.1-0.5,0.2-1.1,0.2-1.9c0-0.7-0.1-1.5-0.1-2.4c-0.1-0.7-0.1-1.4-0.2-1.9c-0.1-0.6-0.2-1.1-0.3-1.6c-0.2-0.5-0.4-1-0.6-1.3
						c-0.3-0.4-0.6-0.8-1-1.1c-0.4-0.4-1.1-0.7-1.9-1c-0.7-0.3-1.6-0.5-2.4-0.7c-0.9-0.2-1.9-0.4-2.8-0.5c-0.4-0.1-0.8-0.1-1.2-0.1
						l0.1-6.9c0-0.1,0-0.1,0-0.2c0-0.5-0.2-0.9-0.4-1.4c-0.2-0.5-0.7-1.1-1.6-1.5c-0.5-0.2-1.2-0.3-1.9-0.4c-0.7,0-1.5,0-2.6,0.1
						c-0.8,0.1-1.5,0.2-2.1,0.3c-0.6,0.1-1.2,0.3-1.6,0.6c-0.6,0.3-1,0.7-1.2,1.2c-0.2,0.4-0.3,0.8-0.3,1.4l-0.1,7.7
						c-2.2,0.5-4.2,1.3-5.9,2.2c-2.1,1.1-3.9,2.5-5.3,4.2c-1.4,1.7-2.5,3.6-3.1,5.7c-0.6,2.1-0.8,4.4-0.6,6.8c0.2,2.7,0.9,5,1.9,6.8
						c1,1.9,2.2,3.4,3.7,4.7c1.5,1.2,3.1,2.2,4.8,2.9c1.7,0.7,3.4,1.3,5.1,1.8c1.7,0.5,3.3,0.9,4.9,1.3c1.5,0.4,2.8,0.9,4,1.4
						c1.1,0.5,2,1.1,2.6,1.8c0.6,0.6,0.9,1.4,1,2.4c0.1,1.6-0.3,2.9-1.5,4c-1.3,1.2-3.5,1.9-6.6,2.2c-2.1,0.2-3.9,0.1-5.4-0.1
						c-1.6-0.3-2.9-0.6-4.1-1c-1.1-0.4-2.1-0.8-2.8-1.1c-1-0.5-1.7-0.7-2.4-0.7c-0.1,0-0.2,0-0.3,0c-0.6,0.1-1.1,0.3-1.6,0.6
						c-0.5,0.4-0.9,0.9-1.1,1.6c-0.2,0.5-0.3,1.2-0.3,2.1c0,0.7,0,1.6,0.2,2.7c0.1,1.4,0.3,2.5,0.6,3.3c0.3,1,0.8,1.7,1.4,2.2
						c0.5,0.4,1.2,0.8,2,1.2c0.8,0.3,1.7,0.6,2.7,0.9c1,0.3,2.1,0.5,3.4,0.7c0.7,0.1,1.5,0.2,2.2,0.3l-0.1,7.4
						c0,0.6,0.1,1.2,0.3,1.7c0.2,0.4,0.7,1.1,1.6,1.4c0.5,0.2,1.1,0.3,1.9,0.4c0.2,0,0.4,0,0.7,0c0.5,0,1.2,0,1.9-0.1
						c0.8-0.1,1.5-0.2,2.1-0.3c0.6-0.1,1.1-0.3,1.6-0.6c0.6-0.3,1-0.7,1.2-1.3c0.2-0.4,0.3-0.8,0.3-1.3l0.1-8.3
						c2.4-0.5,4.7-1.3,6.7-2.3c2.4-1.2,4.5-2.7,6.2-4.5c1.7-1.8,2.9-3.9,3.7-6.3C1407.7,917.4,1408,914.8,1407.7,912.1z"/>
				</g>
			</g>
			<g>
				<path fill="#51B9C4" d="M1380.9,1295.4v-172.8c0-11.4,9.3-20.7,20.7-20.7h76.9c11.4,0,20.7,9.3,20.7,20.7v172.8h129.5V1067
					l-189-134.5l-195.6,139.2v223.8H1380.9z M1517,1176.6V1158c0-11.4,9.3-20.7,20.7-20.7h22.7h22.7c11.4,0,20.7,9.3,20.7,20.7v18.6
					v22.6c0,11.4-9.3,20.7-20.7,20.7h-22.7h-22.7c-11.4,0-20.7-9.3-20.7-20.7V1176.6z M1440,977.8c24.2,0,44,19.7,44,44
					c0,24.2-19.7,44-44,44s-44-19.7-44-44C1396.1,997.5,1415.8,977.8,1440,977.8z M1266.9,1158c0-11.4,9.3-20.7,20.7-20.7h22.7h22.7
					c11.4,0,20.7,9.3,20.7,20.7v18.6v22.6c0,11.4-9.3,20.7-20.7,20.7h-22.7h-22.7c-11.4,0-20.7-9.3-20.7-20.7v-22.6V1158z"/>
				<path fill="#3D8B93" d="M1478.5,1105.3h-76.9c-9.5,0-17.3,7.8-17.3,17.3v172.8h111.4v-172.8
					C1495.7,1113.1,1488,1105.3,1478.5,1105.3z M1473.5,1208.2c-4.3,0-7.8-3.5-7.8-7.8s3.5-7.8,7.8-7.8c4.3,0,7.8,3.5,7.8,7.8
					S1477.8,1208.2,1473.5,1208.2z"/>
				<path fill="#DCF1F3" d="M1350.3,1158c0-9.5-7.8-17.3-17.3-17.3h-21v34.2h38.3V1158z"/>
				<path fill="#DCF1F3" d="M1287.6,1140.7c-9.5,0-17.3,7.8-17.3,17.3v16.9h38.3v-34.2H1287.6z"/>
				<path fill="#DCF1F3" d="M1350.3,1199.2v-20.9H1312v38.2h21C1342.6,1216.5,1350.3,1208.7,1350.3,1199.2z"/>
				<path fill="#DCF1F3" d="M1287.6,1216.5h21v-38.2h-38.3v20.9C1270.3,1208.7,1278.1,1216.5,1287.6,1216.5z"/>
				<path fill="#DCF1F3" d="M1600.5,1158c0-9.5-7.8-17.3-17.3-17.3h-21v34.2h38.3V1158z"/>
				<path fill="#DCF1F3" d="M1537.7,1140.7c-9.5,0-17.3,7.8-17.3,17.3v16.9h38.3v-34.2H1537.7z"/>
				<path fill="#DCF1F3" d="M1600.5,1199.2v-20.9h-38.3v38.2h21C1592.7,1216.5,1600.5,1208.7,1600.5,1199.2z"/>
				<path fill="#DCF1F3" d="M1537.7,1216.5h21v-38.2h-38.3v20.9C1520.4,1208.7,1528.2,1216.5,1537.7,1216.5z"/>
				<path fill="#DCF1F3" d="M1399.5,1023.4c0.9,21,17.8,37.9,38.8,38.8v-38.8H1399.5z"/>
				<path fill="#DCF1F3" d="M1399.5,1020h38.8v-38.8C1417.3,982.1,1400.4,999,1399.5,1020z"/>
				<path fill="#DCF1F3" d="M1480.5,1023.4h-38.8v38.8C1462.7,1061.3,1479.6,1044.4,1480.5,1023.4z"/>
				<path fill="#DCF1F3" d="M1441.7,981.2v38.8h38.8C1479.6,999,1462.7,982.1,1441.7,981.2z"/>
				<g>
					<path fill="#04192D" d="M1333,1137.2h-22.7h-22.7c-11.4,0-20.7,9.3-20.7,20.7v18.6v22.6c0,11.4,9.3,20.7,20.7,20.7h22.7h22.7
						c11.4,0,20.7-9.3,20.7-20.7v-22.6V1158C1353.8,1146.5,1344.5,1137.2,1333,1137.2z M1308.6,1216.5h-21
						c-9.5,0-17.3-7.8-17.3-17.3v-20.9h38.3V1216.5z M1270.3,1174.9V1158c0-9.5,7.8-17.3,17.3-17.3h21v34.2H1270.3z M1350.3,1199.2
						c0,9.5-7.8,17.3-17.3,17.3h-21v-38.2h38.3V1199.2z M1350.3,1174.9H1312v-34.2h21c9.5,0,17.3,7.8,17.3,17.3V1174.9z"/>
					<path fill="#04192D" d="M1537.7,1219.9h22.7h22.7c11.4,0,20.7-9.3,20.7-20.7v-22.6V1158c0-11.4-9.3-20.7-20.7-20.7h-22.7h-22.7
						c-11.4,0-20.7,9.3-20.7,20.7v18.6v22.6C1517,1210.6,1526.3,1219.9,1537.7,1219.9z M1600.5,1199.2c0,9.5-7.8,17.3-17.3,17.3h-21
						v-38.2h38.3V1199.2z M1600.5,1158v16.9h-38.3v-34.2h21C1592.7,1140.7,1600.5,1148.4,1600.5,1158z M1520.4,1158
						c0-9.5,7.8-17.3,17.3-17.3h21v34.2h-38.3V1158z M1520.4,1178.3h38.3v38.2h-21c-9.5,0-17.3-7.8-17.3-17.3V1178.3z"/>
					<path fill="#04192D" d="M1396.1,1021.7c0,24.2,19.7,44,44,44s44-19.7,44-44c0-24.2-19.7-44-44-44S1396.1,997.5,1396.1,1021.7z
						 M1399.5,1023.4h38.8v38.8C1417.3,1061.3,1400.4,1044.4,1399.5,1023.4z M1441.7,981.2c21,0.9,37.9,17.8,38.8,38.8h-38.8V981.2z
						 M1480.5,1023.4c-0.9,21-17.8,37.9-38.8,38.8v-38.8H1480.5z M1438.3,981.2v38.8h-38.8C1400.4,999,1417.3,982.1,1438.3,981.2z"
						/>
					<path fill="#04192D" d="M1701,1077.3c-0.9-5.2-3.7-9.7-8-12.8l-238.5-169.7c-3.7-4.1-9-6.4-14.5-6.4h-0.8
						c-5.5,0-10.8,2.3-14.5,6.4l-85.4,60.8v-19.9c0-11.4-9.3-20.7-20.7-20.7h-19.4c-11.4,0-20.7,9.3-20.7,20.7v63.2l-92.2,65.6
						c-4.3,3-7.1,7.6-8,12.8c-0.9,5.2,0.3,10.4,3.4,14.7c3.7,5.2,9.7,8.3,16.1,8.3c4.1,0,8-1.3,11.4-3.6l31.6-22.5v223.1
						c0,0.9,0.8,1.7,1.7,1.7h140.3h114.9h132.9c0.9,0,1.7-0.8,1.7-1.7v-227.7l38.1,27.1c3.4,2.4,7.3,3.6,11.4,3.6
						c6.4,0,12.4-3.1,16-8.3C1700.7,1087.7,1701.9,1082.4,1701,1077.3z M1495.7,1295.4h-111.4v-172.8c0-9.5,7.8-17.3,17.3-17.3h76.9
						c9.5,0,17.3,7.8,17.3,17.3V1295.4z M1628.7,1295.4h-129.5v-172.8c0-11.4-9.3-20.7-20.7-20.7h-76.9c-11.4,0-20.7,9.3-20.7,20.7
						v172.8h-136.8v-223.8l195.6-139.2l189,134.5V1295.4z"/>
					<path fill="#04192D" d="M1473.5,1192.6c-4.3,0-7.8,3.5-7.8,7.8s3.5,7.8,7.8,7.8c4.3,0,7.8-3.5,7.8-7.8
						S1477.8,1192.6,1473.5,1192.6z"/>
				</g>
			</g>
			<g>
				<path fill="#FFB019" d="M1780.9,1146.7c-4.5-49-44.9-86-94.1-86c-2.9,0-5.8,0.1-8.7,0.4c-25.2,2.3-47.9,14.3-64.1,33.7
					c-16.2,19.4-23.8,44-21.5,69.1c4.5,49,44.9,86,94.1,86c2.9,0,5.8-0.1,8.7-0.4C1747.3,1244.7,1785.7,1198.6,1780.9,1146.7z
					 M1693.2,1226.4c-2.2,0.2-4.4,0.3-6.6,0.3c-17.7,0-34.7-6.6-47.9-18.6c-13.3-12-21.5-28.5-23.1-46.3c-1.7-19,4-37.5,16.2-52.2
					c12.2-14.7,29.4-23.7,48.3-25.5c2.2-0.2,4.4-0.3,6.6-0.3c17.7,0,34.7,6.6,47.9,18.6c13.3,12.1,21.5,28.5,23.1,46.3
					c1.7,19-4,37.5-16.2,52.2C1729.4,1215.6,1712.2,1224.7,1693.2,1226.4z"/>
				<path fill="#FFB019" d="M1729.9,1191.3c9.6-11.6,14.2-26.2,12.8-41.1c-2.6-28.7-27.2-51.1-56-51.1c-1.7,0-3.5,0.1-5.2,0.2
					c-14.9,1.4-28.5,8.5-38.1,20.1c-9.6,11.6-14.2,26.2-12.8,41.1c2.6,28.7,27.2,51.1,56,51.1c0,0,0,0,0,0c1.7,0,3.5-0.1,5.2-0.2
					C1706.8,1209.9,1720.3,1202.8,1729.9,1191.3z M1708.2,1172.3c-0.8,2.4-2.1,4.5-3.8,6.3c-1.7,1.8-3.8,3.3-6.3,4.5
					c-2,1-4.3,1.8-6.8,2.3l-0.1,8.4c0,0.5-0.1,0.9-0.3,1.3c-0.3,0.5-0.7,1-1.3,1.3c-0.5,0.2-1,0.4-1.6,0.6c-0.6,0.1-1.3,0.2-2.1,0.3
					c-0.7,0.1-1.4,0.1-1.9,0.1c-0.3,0-0.5,0-0.7,0c-0.8,0-1.4-0.2-1.9-0.4c-1-0.4-1.4-1-1.6-1.4c-0.3-0.5-0.4-1.1-0.3-1.8l0.1-7.5
					c-0.8-0.1-1.5-0.2-2.3-0.3c-1.3-0.2-2.4-0.4-3.4-0.7c-1-0.3-1.9-0.6-2.7-0.9c-0.9-0.4-1.6-0.8-2.1-1.2c-0.6-0.5-1.1-1.3-1.4-2.3
					c-0.3-0.8-0.4-1.9-0.6-3.3c-0.1-1.1-0.1-2-0.2-2.7c0-0.9,0.1-1.5,0.3-2.1c0.2-0.7,0.6-1.2,1.1-1.6c0.5-0.3,1-0.6,1.6-0.6
					c0.1,0,0.2,0,0.3,0c0.7,0,1.4,0.2,2.4,0.7c0.7,0.4,1.7,0.7,2.9,1.2c1.1,0.4,2.5,0.7,4.1,1c1.6,0.3,3.4,0.3,5.5,0.1
					c3.1-0.3,5.4-1,6.7-2.2c1.2-1.1,1.7-2.4,1.6-4c-0.1-1.1-0.4-1.9-1-2.5c-0.7-0.7-1.6-1.3-2.7-1.8c-1.2-0.5-2.6-1-4.1-1.4
					c-1.6-0.4-3.3-0.9-5-1.4c-1.7-0.5-3.5-1.1-5.2-1.9c-1.8-0.8-3.4-1.8-4.9-3c-1.5-1.3-2.8-2.8-3.8-4.7c-1-1.9-1.6-4.2-1.9-6.9
					c-0.2-2.5,0-4.8,0.6-6.9c0.7-2.1,1.7-4.1,3.1-5.8c1.4-1.7,3.2-3.1,5.4-4.2c1.8-0.9,3.8-1.7,6-2.2l0.1-7.8c0-0.5,0.1-1,0.3-1.4
					c0.2-0.5,0.6-0.9,1.2-1.2c0.4-0.3,1-0.5,1.6-0.6c0.6-0.1,1.2-0.2,2.1-0.3c1.1-0.1,1.9-0.1,2.6-0.1c0.8,0,1.5,0.2,2,0.4
					c1,0.4,1.4,1,1.6,1.5c0.2,0.5,0.3,0.9,0.4,1.4c0,0.1,0,0.1,0,0.2l-0.1,7c0.4,0,0.8,0.1,1.2,0.1c1,0.1,2,0.3,2.9,0.5
					c0.9,0.2,1.7,0.5,2.5,0.8c0.9,0.3,1.5,0.7,2,1c0.4,0.3,0.7,0.7,1,1.1c0.2,0.4,0.4,0.8,0.6,1.4c0.1,0.4,0.2,1,0.3,1.6
					c0.1,0.5,0.2,1.2,0.2,1.9c0.1,0.9,0.1,1.7,0.1,2.4c0,0.8,0,1.4-0.2,1.9c-0.1,0.5-0.4,1.1-0.9,1.5c-0.4,0.3-0.9,0.5-1.4,0.6
					c-0.6,0.1-1.5-0.1-2.6-0.5c-0.7-0.3-1.7-0.6-2.8-1c-1.1-0.3-2.3-0.6-3.7-0.9c-1.3-0.2-2.8-0.3-4.3-0.1c-1.4,0.1-2.6,0.4-3.5,0.7
					c-0.9,0.3-1.5,0.7-2,1.2c-0.4,0.4-0.7,0.9-0.9,1.4c-0.2,0.6-0.3,1.2-0.2,1.8c0.1,1,0.4,1.8,1,2.5c0.7,0.7,1.6,1.3,2.7,1.8
					c1.2,0.5,2.6,1,4.2,1.4c1.6,0.4,3.3,0.9,5,1.4c1.8,0.5,3.5,1.1,5.2,1.8c1.8,0.7,3.5,1.7,4.9,2.9c1.5,1.2,2.8,2.8,3.8,4.7
					c1,1.9,1.7,4.2,1.9,6.8C1709.3,1167.3,1709,1169.9,1708.2,1172.3z"/>
				<path fill="#FFD91E" d="M1739,1198.8c11.6-14,17.1-31.6,15.5-49.7c-3.2-34.7-32.9-61.8-67.7-61.8c-2.1,0-4.2,0.1-6.3,0.3
					c-18.1,1.7-34.4,10.3-46,24.2c-11.6,14-17.1,31.6-15.5,49.7c3.2,34.7,32.9,61.8,67.7,61.8c2.1,0,4.2-0.1,6.3-0.3
					C1711,1221.4,1727.3,1212.8,1739,1198.8z M1692.1,1214.7c-1.8,0.2-3.7,0.3-5.5,0.3c0,0,0,0,0,0c-14.8,0-29-5.5-40-15.5
					c-11.1-10.1-18-23.8-19.3-38.7c-1.5-15.8,3.4-31.3,13.6-43.6c10.2-12.3,24.5-19.8,40.4-21.3c1.8-0.2,3.7-0.3,5.5-0.3
					c14.8,0,29,5.5,40,15.5c11.1,10.1,18,23.8,19.3,38.7c1.5,15.8-3.4,31.3-13.6,43.6C1722.3,1205.7,1708,1213.2,1692.1,1214.7z"/>
				<g>
					<path fill="#04192D" d="M1784.3,1146.4c-2.2-24.5-13.5-47.1-31.7-63.6c-18.1-16.4-41.4-25.5-65.8-25.5c-3,0-6.1,0.1-9.1,0.4
						c-26.1,2.4-49.6,14.8-66.4,34.9c-16.7,20.1-24.6,45.6-22.3,71.6c2.2,24.5,13.5,47.1,31.7,63.6c18.1,16.4,41.4,25.5,65.8,25.5
						c3,0,6-0.1,9.1-0.4C1749.4,1248,1789.2,1200.2,1784.3,1146.4z M1695.3,1249.5c-2.9,0.3-5.8,0.4-8.7,0.4
						c-49.1,0-89.6-37-94.1-86c-2.3-25.2,5.3-49.7,21.5-69.1c16.2-19.4,38.9-31.4,64.1-33.7c2.9-0.3,5.8-0.4,8.7-0.4
						c49.1,0,89.6,37,94.1,86C1785.7,1198.6,1747.3,1244.7,1695.3,1249.5z"/>
					<path fill="#04192D" d="M1734.7,1102.5c-13.2-12-30.2-18.6-47.9-18.6c-2.2,0-4.4,0.1-6.6,0.3c-19,1.7-36.1,10.8-48.3,25.5
						c-12.2,14.7-18,33.2-16.2,52.2c1.6,17.8,9.8,34.3,23.1,46.3c13.2,12,30.2,18.6,47.9,18.6c2.2,0,4.4-0.1,6.6-0.3
						c19-1.7,36.1-10.8,48.3-25.5c12.2-14.7,18-33.2,16.2-52.2C1756.2,1131,1748,1114.5,1734.7,1102.5z M1739,1198.8
						c-11.6,14-28,22.6-46,24.2c-2.1,0.2-4.2,0.3-6.3,0.3c-34.8,0-64.5-27.1-67.7-61.8c-1.7-18.1,3.8-35.7,15.5-49.7
						c11.6-14,28-22.6,46-24.2c2.1-0.2,4.2-0.3,6.3-0.3c34.8,0,64.5,27.1,67.7,61.8C1756.1,1167.2,1750.6,1184.8,1739,1198.8z"/>
					<path fill="#04192D" d="M1726.8,1111.2c-11-10-25.2-15.5-40-15.5c-1.8,0-3.7,0.1-5.5,0.3c-15.8,1.5-30.2,9-40.4,21.3
						c-10.2,12.3-15,27.7-13.6,43.6c1.4,14.9,8.2,28.6,19.3,38.7c11,10,25.2,15.5,40,15.5c0,0,0,0,0,0c1.8,0,3.7-0.1,5.5-0.3
						c15.8-1.5,30.2-9,40.4-21.3c10.2-12.3,15-27.7,13.6-43.6C1744.7,1135,1737.9,1121.2,1726.8,1111.2z M1729.9,1191.3
						c-9.6,11.6-23.1,18.7-38.1,20.1c-1.7,0.2-3.5,0.2-5.2,0.2c0,0,0,0,0,0c-28.7,0-53.3-22.5-56-51.1c-1.4-14.9,3.2-29.5,12.8-41.1
						c9.6-11.6,23.1-18.7,38.1-20.1c1.7-0.2,3.5-0.2,5.2-0.2c28.8,0,53.3,22.5,56,51.1C1744.1,1165.1,1739.5,1179.7,1729.9,1191.3z"
						/>
					<path fill="#04192D" d="M1709,1164.5c-0.2-2.7-0.9-5-1.9-6.8c-1-1.8-2.3-3.4-3.8-4.7c-1.5-1.2-3.1-2.2-4.9-2.9
						c-1.7-0.7-3.4-1.3-5.2-1.8c-1.7-0.5-3.4-0.9-5-1.4c-1.6-0.4-3-0.9-4.2-1.4c-1.1-0.5-2-1.1-2.7-1.8c-0.6-0.6-0.9-1.4-1-2.5
						c-0.1-0.7,0-1.3,0.2-1.8c0.2-0.5,0.5-1,0.9-1.4c0.5-0.4,1.2-0.8,2-1.2c0.9-0.3,2.1-0.6,3.5-0.7c1.6-0.1,3-0.1,4.3,0.1
						c1.4,0.3,2.6,0.5,3.7,0.9c1.1,0.3,2,0.7,2.8,1c1.1,0.4,1.9,0.6,2.6,0.5c0.5,0,1-0.3,1.4-0.6c0.6-0.4,0.8-1.1,0.9-1.5
						c0.1-0.5,0.2-1.1,0.2-1.9c0-0.7-0.1-1.5-0.1-2.4c-0.1-0.7-0.1-1.4-0.2-1.9c-0.1-0.6-0.2-1.1-0.3-1.6c-0.2-0.5-0.4-1-0.6-1.4
						c-0.3-0.4-0.6-0.8-1-1.1c-0.4-0.4-1.1-0.7-2-1c-0.7-0.3-1.6-0.5-2.5-0.8c-0.9-0.2-1.9-0.4-2.9-0.5c-0.4-0.1-0.8-0.1-1.2-0.1
						l0.1-7c0-0.1,0-0.1,0-0.2c0-0.5-0.2-1-0.4-1.4c-0.2-0.5-0.7-1.1-1.6-1.5c-0.5-0.2-1.2-0.3-2-0.4c-0.7,0-1.5,0-2.6,0.1
						c-0.9,0.1-1.5,0.2-2.1,0.3c-0.7,0.1-1.2,0.3-1.6,0.6c-0.6,0.3-1,0.7-1.2,1.2c-0.2,0.4-0.3,0.9-0.3,1.4l-0.1,7.8
						c-2.2,0.6-4.2,1.3-6,2.2c-2.2,1.1-4,2.6-5.4,4.2c-1.4,1.7-2.5,3.6-3.1,5.8c-0.6,2.1-0.9,4.5-0.6,6.9c0.2,2.7,0.9,5,1.9,6.9
						c1,1.9,2.3,3.5,3.8,4.7c1.5,1.2,3.1,2.2,4.9,3c1.7,0.7,3.4,1.4,5.2,1.9c1.7,0.5,3.4,0.9,5,1.4c1.5,0.4,2.9,0.9,4.1,1.4
						c1.1,0.5,2,1.1,2.7,1.8c0.6,0.6,0.9,1.4,1,2.5c0.1,1.6-0.3,2.9-1.6,4c-1.3,1.2-3.6,2-6.7,2.2c-2.1,0.2-4,0.2-5.5-0.1
						c-1.6-0.3-3-0.6-4.1-1c-1.1-0.4-2.1-0.8-2.9-1.2c-1-0.5-1.8-0.7-2.4-0.7c-0.1,0-0.2,0-0.3,0c-0.6,0.1-1.2,0.3-1.6,0.6
						c-0.5,0.4-0.9,0.9-1.1,1.6c-0.2,0.6-0.3,1.2-0.3,2.1c0,0.7,0,1.6,0.2,2.7c0.1,1.5,0.3,2.6,0.6,3.3c0.3,1,0.8,1.8,1.4,2.3
						c0.5,0.4,1.2,0.8,2.1,1.2c0.8,0.3,1.7,0.7,2.7,0.9c1,0.3,2.1,0.5,3.4,0.7c0.7,0.1,1.5,0.2,2.3,0.3l-0.1,7.5
						c0,0.7,0.1,1.3,0.3,1.8c0.2,0.5,0.7,1.1,1.6,1.4c0.5,0.2,1.2,0.3,1.9,0.4c0.2,0,0.4,0,0.7,0c0.6,0,1.2,0,1.9-0.1
						c0.9-0.1,1.5-0.2,2.1-0.3c0.6-0.2,1.1-0.3,1.6-0.6c0.6-0.3,1-0.8,1.3-1.3c0.2-0.4,0.3-0.8,0.3-1.3l0.1-8.4
						c2.5-0.5,4.8-1.3,6.8-2.3c2.5-1.2,4.6-2.7,6.3-4.5c1.7-1.8,3-4,3.8-6.3C1709,1169.9,1709.3,1167.3,1709,1164.5z"/>
				</g>
			</g>
			<g>
				<path fill="#FDD4A6" d="M973.8,1437.6c13.8,0,27.9,1.4,41.1,5.2c16.9,4.8,41.2,15.7,69.3,28.4c62.5,28.1,140.3,63.1,198.2,60.5
					c49.9-2.2,152.2-69.4,270.7-147.1c81.1-53.2,165-108.3,244-150.5c-1.3-5.9-6.7-25.8-24.8-35.9c-17.4-9.8-41.6-8-71.8,5.2
					c-81.9,35.8-186.2,77.8-203.7,84.9c2.6,6.1,4.1,13,4.4,20.8c0.4,12.9-4.4,24.3-14.4,34c-29.3,28.6-103,43-219.6,43
					c-32,0-67.2-1.1-105.6-3.3c-1.4-0.1-2.5-1.3-2.4-2.7c0.1-1.4,1.3-2.4,2.7-2.4c174.4,9.9,285.5-3.4,321.4-38.4
					c8.9-8.7,13.2-18.8,12.8-30.2c-2.1-65.2-103.7-62.6-185.3-60.5c-13.6,0.3-26.5,0.7-38.4,0.7c-44.8,0-80.1-15.9-114.2-31.3
					c-29.8-13.4-57.9-26.1-89.2-26.1c-61.8,0-161.8,39.6-175.4,45.1v213.5C904.1,1447.3,937.9,1437.6,973.8,1437.6z"/>
				<polygon fill="#D0E0F0" points="888.4,1494 888.4,1454.1 888.4,1235.4 888.4,1201.8 848.5,1201.8 848.5,1494 				"/>
				<polygon fill="#1265B3" points="843.5,1496.5 843.5,1199.2 843.5,1177.3 540.1,1177.3 540.1,1518.4 843.5,1518.4 				"/>
				<path fill="#04192D" d="M1774.7,1193.9c-18.9-10.6-44.6-8.9-76.4,4.9c-82.4,36-187.5,78.4-203.9,85
					c-24.4-44.1-111.8-41.9-183.9-40.1c-13.6,0.3-26.5,0.7-38.3,0.7c-43.7,0-78.5-15.7-112.1-30.8c-30.3-13.7-58.9-26.5-91.3-26.5
					c-60.4,0-156.1,37-175.4,44.7v-32.5c0-1.4-1.1-2.5-2.5-2.5h-42.4v-21.9c0-1.4-1.1-2.5-2.5-2.5H537.6c-1.4,0-2.5,1.1-2.5,2.5
					v346.1c0,1.4,1.1,2.5,2.5,2.5H846c1.4,0,2.5-1.1,2.5-2.5V1499h42.4c1.4,0,2.5-1.1,2.5-2.5v-40.6c10.9-3.5,72.6-21.9,120.1-8.3
					c16.5,4.7,40.7,15.6,68.6,28.1c60.7,27.3,135.8,61.1,194.1,61.1c2.2,0,4.3,0,6.4-0.1c51.3-2.3,154.1-69.8,273.2-147.9
					c81.6-53.5,165.9-108.9,245.2-151.1c0.9-0.5,1.5-1.5,1.3-2.6C1802.1,1234,1798.2,1207,1774.7,1193.9z M843.5,1199.2v297.3v21.9
					H540.1v-341.1h303.4V1199.2z M888.4,1235.4v218.6v39.9h-39.9v-292.2h39.9V1235.4z M1553,1384.6
					c-118.4,77.7-220.7,144.9-270.7,147.1c-57.9,2.6-135.7-32.4-198.2-60.5c-28.1-12.6-52.4-23.5-69.3-28.4
					c-13.2-3.8-27.3-5.2-41.1-5.2c-35.9,0-69.8,9.7-80.4,13v-213.5c13.6-5.5,113.6-45.1,175.4-45.1c31.3,0,59.4,12.7,89.2,26.1
					c34.1,15.4,69.4,31.3,114.2,31.3c11.9,0,24.8-0.3,38.4-0.7c81.6-2.1,183.2-4.7,185.3,60.5c0.4,11.4-4,21.6-12.8,30.2
					c-35.8,35-147,48.2-321.4,38.4c-1.4-0.1-2.6,1-2.7,2.4c-0.1,1.4,1,2.6,2.4,2.7c38.4,2.2,73.6,3.3,105.6,3.3
					c116.5,0,190.2-14.4,219.6-43c9.9-9.7,14.8-21.1,14.4-34c-0.3-7.8-1.8-14.7-4.4-20.8c17.5-7,121.8-49.1,203.7-84.9
					c30.2-13.2,54.4-14.9,71.8-5.2c18,10.1,23.5,29.9,24.8,35.9C1718,1276.3,1634.1,1331.3,1553,1384.6z"/>
			</g>
			<g>
				<path fill="#FDD4A6" d="M2198.2,1221.8c-0.2-2.7-0.9-5-1.9-6.8c-1-1.8-2.3-3.4-3.8-4.7c-1.5-1.2-3.1-2.2-4.9-2.9
					c-1.7-0.7-3.4-1.3-5.2-1.8c-1.7-0.5-3.4-0.9-5-1.4c-1.6-0.4-3-0.9-4.2-1.4c-1.1-0.5-2-1.1-2.7-1.8c-0.6-0.6-0.9-1.4-1-2.5
					c-0.1-0.7,0-1.3,0.2-1.8c0.2-0.5,0.5-1,0.9-1.4c0.5-0.5,1.2-0.8,2-1.2c0.9-0.4,2.1-0.6,3.5-0.7c1.6-0.1,3-0.1,4.3,0.1
					c1.4,0.2,2.6,0.5,3.7,0.9c1.1,0.3,2,0.7,2.8,1c1.1,0.4,1.9,0.6,2.6,0.5c0.5,0,1-0.3,1.4-0.6c0.6-0.4,0.8-1.1,0.9-1.5
					c0.1-0.5,0.2-1.1,0.2-1.9c0-0.7-0.1-1.5-0.1-2.4c-0.1-0.7-0.1-1.4-0.2-1.9c-0.1-0.6-0.2-1.1-0.3-1.6c-0.2-0.5-0.4-1-0.6-1.4
					c-0.3-0.4-0.6-0.8-1-1.1c-0.4-0.4-1.1-0.7-2-1c-0.7-0.3-1.6-0.5-2.5-0.8c-0.9-0.2-1.9-0.4-2.9-0.5c-0.4-0.1-0.8-0.1-1.2-0.1
					l0.1-7c0-0.1,0-0.1,0-0.2c0-0.5-0.2-1-0.4-1.4c-0.2-0.5-0.7-1.1-1.6-1.5c-0.5-0.2-1.2-0.3-2-0.4c-0.7,0-1.5,0-2.6,0.1
					c-0.9,0.1-1.5,0.2-2.1,0.3c-0.7,0.1-1.2,0.3-1.6,0.6c-0.6,0.3-1,0.7-1.2,1.2c-0.2,0.4-0.3,0.9-0.3,1.4l-0.1,7.8
					c-2.2,0.6-4.2,1.3-6,2.2c-2.2,1.1-4,2.6-5.4,4.2c-1.4,1.7-2.5,3.6-3.1,5.8c-0.6,2.1-0.9,4.5-0.6,6.9c0.2,2.7,0.9,5,1.9,6.9
					c1,1.9,2.3,3.5,3.8,4.7c1.5,1.2,3.1,2.2,4.9,3c1.7,0.7,3.4,1.4,5.2,1.9c1.7,0.5,3.4,0.9,5,1.4c1.5,0.4,2.9,0.9,4.1,1.4
					c1.1,0.5,2,1.1,2.7,1.8c0.6,0.6,0.9,1.4,1,2.5c0.2,1.6-0.3,2.9-1.6,4c-1.3,1.2-3.6,2-6.7,2.2c-2.1,0.2-4,0.2-5.5-0.1
					c-1.6-0.3-3-0.6-4.1-1c-1.1-0.4-2.1-0.8-2.9-1.2c-1-0.5-1.7-0.7-2.4-0.7c-0.1,0-0.2,0-0.3,0c-0.6,0.1-1.2,0.3-1.6,0.6
					c-0.5,0.4-0.9,0.9-1.1,1.6c-0.2,0.6-0.3,1.2-0.3,2.1c0,0.7,0,1.6,0.2,2.7c0.1,1.5,0.3,2.6,0.6,3.3c0.3,1,0.8,1.8,1.4,2.3
					c0.5,0.4,1.2,0.8,2.1,1.2c0.8,0.3,1.7,0.6,2.7,0.9c1,0.3,2.1,0.5,3.4,0.7c0.7,0.1,1.5,0.2,2.3,0.3l-0.1,7.5
					c0,0.7,0.1,1.3,0.3,1.8c0.2,0.5,0.7,1.1,1.6,1.4c0.5,0.2,1.2,0.3,1.9,0.4c0.2,0,0.4,0,0.7,0c0.6,0,1.2,0,1.9-0.1
					c0.9-0.1,1.5-0.2,2.1-0.3c0.6-0.2,1.1-0.3,1.6-0.6c0.6-0.3,1-0.7,1.3-1.3c0.2-0.4,0.3-0.8,0.3-1.3l0.1-8.4
					c2.5-0.5,4.8-1.3,6.8-2.3c2.5-1.2,4.6-2.7,6.3-4.5c1.7-1.8,3-4,3.8-6.3C2198.2,1227.2,2198.5,1224.6,2198.2,1221.8z"/>
				<path fill="#FDD4A6" d="M1372.3,389.1c-0.2-2.7-0.9-5-1.9-6.8c-1-1.8-2.3-3.4-3.8-4.7c-1.5-1.2-3.1-2.2-4.9-2.9
					c-1.7-0.7-3.4-1.3-5.2-1.8c-1.7-0.5-3.4-0.9-5-1.4c-1.6-0.4-3-0.9-4.2-1.4c-1.1-0.5-2-1.1-2.7-1.8c-0.6-0.6-0.9-1.4-1-2.5
					c-0.1-0.7,0-1.3,0.2-1.8c0.2-0.5,0.5-1,0.9-1.4c0.5-0.4,1.2-0.8,2-1.2c0.9-0.4,2.1-0.6,3.5-0.7c1.6-0.1,3-0.1,4.3,0.1
					c1.4,0.3,2.6,0.5,3.7,0.9c1.1,0.3,2,0.7,2.8,1c1.1,0.4,1.9,0.6,2.6,0.5c0.5,0,1-0.3,1.4-0.6c0.6-0.4,0.8-1.1,0.9-1.5
					c0.1-0.5,0.2-1.1,0.2-1.9c0-0.7-0.1-1.5-0.1-2.4c-0.1-0.7-0.1-1.4-0.2-1.9c-0.1-0.6-0.2-1.1-0.3-1.6c-0.2-0.5-0.4-1-0.6-1.4
					c-0.3-0.4-0.6-0.8-1-1.1c-0.4-0.4-1.1-0.7-2-1c-0.7-0.3-1.6-0.5-2.5-0.8c-0.9-0.2-1.9-0.4-2.9-0.5c-0.4-0.1-0.8-0.1-1.2-0.1
					l0.1-7c0-0.1,0-0.1,0-0.2c0-0.5-0.2-1-0.4-1.4c-0.2-0.5-0.7-1.1-1.6-1.5c-0.5-0.2-1.2-0.3-2-0.4c-0.7,0-1.5,0-2.6,0.1
					c-0.9,0.1-1.5,0.2-2.1,0.3c-0.7,0.1-1.2,0.3-1.6,0.6c-0.6,0.3-1,0.7-1.2,1.2c-0.2,0.4-0.3,0.9-0.3,1.4l-0.1,7.8
					c-2.2,0.6-4.2,1.3-6,2.2c-2.2,1.1-4,2.6-5.4,4.2c-1.4,1.7-2.5,3.6-3.1,5.8c-0.6,2.1-0.9,4.5-0.6,6.9c0.2,2.7,0.9,5,1.9,6.9
					c1,1.9,2.3,3.5,3.8,4.7c1.5,1.2,3.1,2.2,4.9,3c1.7,0.7,3.4,1.4,5.2,1.9c1.7,0.5,3.4,0.9,5,1.4c1.5,0.4,2.9,0.9,4.1,1.4
					c1.1,0.5,2,1.1,2.7,1.8c0.6,0.6,0.9,1.4,1,2.5c0.2,1.6-0.3,2.9-1.6,4c-1.3,1.2-3.6,2-6.7,2.2c-2.1,0.2-4,0.2-5.5-0.1
					c-1.6-0.3-3-0.6-4.1-1c-1.1-0.4-2.1-0.8-2.9-1.2c-1-0.5-1.7-0.7-2.4-0.7c-0.1,0-0.2,0-0.3,0c-0.6,0.1-1.2,0.3-1.6,0.6
					c-0.5,0.4-0.9,0.9-1.1,1.6c-0.2,0.6-0.3,1.2-0.3,2.1c0,0.7,0,1.6,0.2,2.7c0.1,1.5,0.3,2.6,0.6,3.3c0.3,1,0.8,1.8,1.4,2.3
					c0.5,0.4,1.2,0.8,2.1,1.2c0.8,0.3,1.7,0.6,2.7,0.9c1,0.3,2.1,0.5,3.4,0.7c0.7,0.1,1.5,0.2,2.3,0.3l-0.1,7.5
					c0,0.7,0.1,1.3,0.3,1.8c0.2,0.5,0.7,1.1,1.6,1.4c0.5,0.2,1.2,0.3,1.9,0.4c0.2,0,0.4,0,0.7,0c0.6,0,1.2,0,1.9-0.1
					c0.9-0.1,1.5-0.2,2.1-0.3c0.6-0.2,1.1-0.3,1.6-0.6c0.6-0.3,1-0.8,1.3-1.3c0.2-0.4,0.3-0.8,0.3-1.3l0.1-8.4
					c2.5-0.5,4.8-1.3,6.8-2.3c2.5-1.2,4.6-2.7,6.3-4.5c1.7-1.8,3-4,3.8-6.3C1372.3,394.5,1372.6,391.9,1372.3,389.1z"/>
				<g>
					<path fill="#FDD4A6" d="M2176.2,1128.1c-2.2,0-3.9-1.8-3.9-3.9c0-406-330.3-736.4-736.4-736.4c-2.2,0-3.9-1.7-3.9-3.9
						c0-2.2,1.8-3.9,3.9-3.9c100.5,0,197.9,19.7,289.7,58.5c88.6,37.5,168.2,91.1,236.6,159.5c68.3,68.3,122,147.9,159.5,236.6
						c38.8,91.8,58.5,189.2,58.5,289.7C2180.1,1126.4,2178.4,1128.1,2176.2,1128.1z"/>
				</g>
				<g>
					<path fill="#FDD4A6" d="M1351.1,472.6c-48.9,0-88.7-39.8-88.7-88.7c0-48.9,39.8-88.7,88.7-88.7c48.9,0,88.7,39.8,88.7,88.7
						C1439.9,432.8,1400,472.6,1351.1,472.6z M1351.1,303c-44.6,0-80.9,36.3-80.9,80.9s36.3,80.9,80.9,80.9
						c44.6,0,80.9-36.3,80.9-80.9S1395.7,303,1351.1,303z"/>
				</g>
				<g>
					<path fill="#FDD4A6" d="M2176.2,1301.4c-48.9,0-88.7-39.8-88.7-88.7s39.8-88.7,88.7-88.7c48.9,0,88.7,39.8,88.7,88.7
						S2225.2,1301.4,2176.2,1301.4z M2176.2,1131.8c-44.6,0-80.9,36.3-80.9,80.9c0,44.6,36.3,80.9,80.9,80.9
						c44.6,0,80.9-36.3,80.9-80.9C2257.1,1168.1,2220.9,1131.8,2176.2,1131.8z"/>
				</g>
			</g>
		</g>
	</g>
</g>
</svg>
